<svg width="700" height="550" viewBox="0 0 700 550" fill="none" xmlns="http://www.w3.org/2000/svg">
<path d="M272.817 458.669C256.567 453.589 241.987 448.399 224.447 438.549C206.357 428.389 125.997 380.039 115.547 296.359C112.81 273.424 115.082 250.169 122.207 228.199C125.437 218.729 132.137 199.709 149.047 180.899C169.747 157.859 193.367 148.929 207.217 143.879C236.357 133.249 260.797 133.809 272.437 134.189C284.997 134.599 307.167 135.519 332.367 146.529C348.807 153.709 359.027 161.899 374.087 174.139C397.947 193.549 401.087 201.629 442.827 241.709C454.287 252.709 463.707 261.379 478.087 269.919C488.057 275.839 496.117 279.149 510.987 285.189C547.537 300.039 557.944 303.045 569.904 311.405C593.164 327.675 591.657 345.419 592.657 349.239C595.258 359.008 595.86 369.201 594.427 379.209C591.377 399.279 580.567 412.399 573.857 420.339C564.647 431.138 553.486 440.108 540.957 446.779C532.26 451.368 523.251 455.341 513.997 458.669H272.817Z" fill="#EFEDEF"/>
<path d="M221.226 444.482L221.716 443.611C197.816 430.185 119.019 379.849 108.539 295.875C105.715 272.062 108.073 247.919 115.452 225.103C118.428 216.371 125.4 195.925 143.299 176.008C165.222 151.614 190.246 142.488 203.689 137.586C225.382 129.777 248.411 126.355 271.437 127.518C282.975 127.892 306.983 128.671 333.68 140.328L334.081 139.412C307.208 127.678 283.07 126.895 271.47 126.518C248.316 125.349 225.16 128.792 203.347 136.647C189.821 141.579 164.645 150.76 142.555 175.34C124.519 195.408 117.502 215.991 114.505 224.78C107.08 247.741 104.706 272.035 107.547 295.998C118.085 380.438 197.222 430.998 221.226 444.482Z" fill="#6A8D99"/>
<path d="M327.394 91.085H559.169C560.798 91.085 562.118 92.4053 562.118 94.034V287.864C562.118 289.493 560.798 290.813 559.169 290.813H327.394C325.765 290.813 324.445 289.493 324.445 287.864V94.034C324.445 92.4053 325.765 91.085 327.394 91.085Z" fill="#FFE3CB"/>
<path d="M422.782 126.992C423.059 126.992 423.326 126.884 423.526 126.691C423.726 126.498 423.843 126.235 423.853 125.957C423.863 125.68 423.765 125.409 423.58 125.202C423.395 124.995 423.136 124.868 422.859 124.848L403.169 123.4C402.885 123.379 402.605 123.472 402.389 123.658C402.174 123.844 402.041 124.108 402.02 124.392C401.999 124.676 402.092 124.956 402.278 125.172C402.464 125.387 402.728 125.52 403.012 125.541L422.702 126.989C422.729 126.991 422.755 126.992 422.782 126.992ZM403.09 132.507H422.781C423.065 132.507 423.338 132.394 423.54 132.193C423.741 131.991 423.854 131.718 423.854 131.433C423.854 131.149 423.741 130.875 423.54 130.674C423.338 130.473 423.065 130.36 422.781 130.36H403.09C402.805 130.36 402.532 130.473 402.331 130.674C402.129 130.875 402.016 131.149 402.016 131.433C402.016 131.718 402.129 131.991 402.331 132.193C402.532 132.394 402.805 132.507 403.09 132.507V132.507ZM403.09 139.47H422.781C423.065 139.47 423.338 139.356 423.54 139.155C423.741 138.954 423.854 138.681 423.854 138.396C423.854 138.111 423.741 137.838 423.54 137.636C423.338 137.435 423.065 137.322 422.781 137.322H403.09C402.805 137.322 402.532 137.435 402.331 137.636C402.129 137.838 402.016 138.111 402.016 138.396C402.016 138.681 402.129 138.954 402.331 139.155C402.532 139.356 402.805 139.47 403.09 139.47V139.47ZM403.09 144.149H422.781C423.065 144.149 423.338 144.036 423.54 143.834C423.741 143.633 423.854 143.36 423.854 143.075C423.854 142.79 423.741 142.517 423.54 142.316C423.338 142.114 423.065 142.001 422.781 142.001H403.09C402.805 142.001 402.532 142.114 402.331 142.316C402.129 142.517 402.016 142.79 402.016 143.075C402.016 143.36 402.129 143.633 402.331 143.834C402.532 144.036 402.805 144.149 403.09 144.149V144.149ZM516.127 259.796C516.412 259.796 516.685 259.683 516.886 259.482C517.088 259.28 517.201 259.007 517.201 258.723V124.471C517.201 124.186 517.088 123.913 516.886 123.711C516.685 123.51 516.412 123.397 516.127 123.397C515.842 123.397 515.569 123.51 515.368 123.711C515.166 123.913 515.053 124.186 515.053 124.471V258.723C515.053 259.007 515.166 259.28 515.368 259.482C515.569 259.683 515.842 259.796 516.127 259.796V259.796Z" fill="#904D24"/>
<path d="M347.154 237.178H539.411C539.696 237.178 539.969 237.065 540.17 236.864C540.371 236.662 540.485 236.389 540.485 236.104C540.485 235.819 540.371 235.546 540.17 235.345C539.969 235.143 539.696 235.03 539.411 235.03H347.154C346.869 235.03 346.596 235.143 346.394 235.345C346.193 235.546 346.08 235.819 346.08 236.104C346.08 236.389 346.193 236.662 346.394 236.864C346.596 237.065 346.869 237.178 347.154 237.178ZM506.149 224.122C506.343 224.122 506.534 224.069 506.7 223.969C506.867 223.87 507.003 223.727 507.095 223.555C507.186 223.384 507.23 223.192 507.221 222.998C507.212 222.804 507.15 222.616 507.043 222.454L487.75 193.414C487.644 193.257 487.499 193.131 487.329 193.048C487.159 192.964 486.971 192.926 486.782 192.936C486.592 192.95 486.41 193.013 486.253 193.119C486.096 193.225 485.97 193.372 485.888 193.543L476.192 213.709L449.897 161.157C449.802 160.961 449.648 160.8 449.457 160.694C449.267 160.589 449.048 160.545 448.831 160.569C448.615 160.59 448.41 160.676 448.244 160.817C448.078 160.957 447.959 161.144 447.901 161.353L438.611 195.229L430.579 181.032C430.481 180.858 430.336 180.715 430.161 180.619C429.986 180.523 429.787 180.477 429.588 180.488C429.388 180.498 429.196 180.564 429.032 180.678C428.868 180.792 428.739 180.95 428.659 181.133L417.768 206.237L410.033 184.52C409.965 184.329 409.845 184.162 409.687 184.037C409.528 183.912 409.338 183.834 409.137 183.812C408.936 183.789 408.733 183.824 408.551 183.912C408.369 184.001 408.216 184.139 408.11 184.312L400.475 196.573L373.393 142.594C373.299 142.406 373.153 142.251 372.971 142.146C372.79 142.041 372.582 141.991 372.373 142.003C372.164 142.014 371.962 142.087 371.794 142.212C371.626 142.336 371.497 142.508 371.425 142.704L366.266 156.731L348.101 122.671C347.967 122.42 347.738 122.233 347.466 122.151C347.194 122.068 346.9 122.097 346.649 122.231C346.398 122.365 346.211 122.593 346.127 122.865C346.044 123.137 346.073 123.431 346.206 123.682L365.498 159.856C365.596 160.039 365.744 160.19 365.925 160.29C366.107 160.391 366.313 160.436 366.52 160.422C366.726 160.408 366.925 160.334 367.09 160.21C367.256 160.086 367.382 159.916 367.454 159.722L372.585 145.773L399.413 199.248C399.499 199.419 399.628 199.563 399.789 199.667C399.949 199.771 400.134 199.831 400.324 199.84C400.514 199.846 400.703 199.802 400.871 199.714C401.039 199.625 401.182 199.495 401.285 199.335L408.757 187.336L416.659 209.522C416.731 209.725 416.863 209.901 417.037 210.029C417.211 210.156 417.419 210.228 417.634 210.235C417.85 210.242 418.062 210.184 418.244 210.069C418.427 209.954 418.57 209.787 418.656 209.589L429.771 183.966L438.023 198.553C438.128 198.738 438.285 198.888 438.475 198.983C438.665 199.079 438.879 199.116 439.09 199.09C439.301 199.064 439.499 198.975 439.66 198.836C439.821 198.697 439.937 198.514 439.993 198.308L449.231 164.625L475.251 216.627C475.347 216.802 475.487 216.949 475.657 217.053C475.827 217.157 476.021 217.215 476.22 217.221C476.421 217.219 476.618 217.161 476.787 217.054C476.957 216.946 477.093 216.793 477.18 216.612L487.006 196.174L505.254 223.642C505.352 223.79 505.485 223.911 505.641 223.995C505.797 224.079 505.972 224.123 506.149 224.122V224.122ZM534.754 208.119C535.039 208.119 535.312 208.005 535.513 207.804C535.715 207.603 535.828 207.329 535.828 207.045V143.075C535.828 142.79 535.715 142.517 535.513 142.316C535.312 142.114 535.039 142.001 534.754 142.001C534.469 142.001 534.196 142.114 533.995 142.316C533.793 142.517 533.68 142.79 533.68 143.075V207.045C533.68 207.329 533.793 207.603 533.995 207.804C534.196 208.005 534.469 208.119 534.754 208.119V208.119ZM389.064 253.977H389.079L489.532 252.561C489.817 252.557 490.088 252.44 490.287 252.236C490.485 252.032 490.595 251.757 490.591 251.472C490.582 251.189 490.464 250.92 490.261 250.722C490.057 250.524 489.785 250.414 489.502 250.414L389.049 251.829C388.766 251.833 388.495 251.949 388.297 252.151C388.098 252.354 387.988 252.627 387.99 252.91C387.992 253.194 388.106 253.465 388.307 253.665C388.508 253.865 388.78 253.977 389.064 253.977V253.977Z" fill="#904D24"/>
<path d="M273.342 458.41L301.287 364.199L293.501 361.889L264.795 458.666L273.342 458.41Z" fill="#C38F86"/>
<path d="M331.061 458.41L339.608 458.666L310.901 361.889L303.115 364.199L331.061 458.41Z" fill="#C38F86"/>
<path d="M298.198 356.272H306.319V458.685H298.198V356.272Z" fill="#C38F86"/>
<path d="M267.385 351.531H343.59C347.33 351.531 350.362 354.563 350.362 358.302C350.362 362.042 347.33 365.074 343.59 365.074H267.385C263.645 365.074 260.613 362.042 260.613 358.302C260.613 354.563 263.645 351.531 267.385 351.531Z" fill="#935B50"/>
<path d="M212.418 310.119V310.489C212.418 311.432 212.793 312.337 213.46 313.003C214.127 313.67 215.031 314.045 215.974 314.045H226.656C227.599 314.045 228.503 313.67 229.17 313.003C229.837 312.337 230.212 311.432 230.212 310.489V296.095C230.212 295.152 229.837 294.247 229.17 293.58C228.503 292.914 227.599 292.539 226.656 292.539H215.974C215.031 292.539 214.127 292.914 213.46 293.58C212.793 294.247 212.418 295.152 212.418 296.095V310.119V310.119Z" fill="#FFBA55"/>
<path d="M206.529 296.208H212.418V298.342H207.596V307.986H212.418V310.119H206.529C206.389 310.12 206.25 310.092 206.121 310.039C205.991 309.985 205.874 309.906 205.775 309.807C205.676 309.708 205.597 309.591 205.543 309.461C205.49 309.332 205.462 309.193 205.463 309.053V297.275C205.462 297.135 205.49 296.996 205.543 296.867C205.597 296.737 205.676 296.619 205.775 296.52C205.874 296.421 205.991 296.343 206.121 296.289C206.25 296.236 206.389 296.208 206.529 296.208Z" fill="#935B50"/>
<path d="M217.606 299.901H220.604C220.997 299.901 221.315 300.219 221.315 300.612V303.61C221.315 304.003 220.997 304.321 220.604 304.321H217.606C217.213 304.321 216.895 304.003 216.895 303.61V300.612C216.895 300.219 217.213 299.901 217.606 299.901Z" fill="white"/>
<path d="M218.604 292.538H219.606V299.901H218.604V292.538Z" fill="#E5CAF3"/>
<path d="M371.988 431.251C371.988 431.251 371.254 455.26 373.167 455.692C375.081 456.124 422.38 451.229 413.538 448.602L399.003 445.075C396.496 444.495 394.211 443.204 392.42 441.357C390.63 439.509 389.411 437.184 388.909 434.661L387.523 427.274L371.988 431.251ZM313.765 422.795C313.765 422.795 301.431 441.607 302.746 442.822C304.06 444.038 339.645 459.094 333.88 452.975L328.544 446.114C326.828 444.499 325.631 442.411 325.105 440.114C324.58 437.817 324.749 435.416 325.591 433.216L328.1 426.694L313.765 422.795Z" fill="#F9977A"/>
<path d="M331.399 335.538C336.384 339.385 334.049 343.982 331.973 349.805L309.271 427.314L325.649 436.059L364.621 359.441C364.621 359.441 377.409 343.867 361.114 333.136L331.399 335.538Z" fill="#8B9D36"/>
<path d="M323.09 299.814L329.872 294.777C330.846 294.057 331.995 293.613 333.2 293.493C335.32 293.278 338.73 292.831 340.222 292.076C341.67 291.343 342.401 291.979 341.661 293.386C341.226 294.214 339.694 295.304 335.68 296.594L339.173 297.456C339.689 297.584 340.226 297.607 340.751 297.524C341.276 297.44 341.779 297.252 342.231 296.971L346.076 294.558C346.315 294.409 346.599 294.347 346.879 294.386C347.159 294.424 347.416 294.559 347.607 294.767L347.607 294.767C347.715 294.886 347.795 295.027 347.843 295.18C347.891 295.334 347.905 295.495 347.884 295.654C347.863 295.813 347.809 295.966 347.723 296.102C347.638 296.237 347.524 296.353 347.39 296.441L340.45 301.102C340.45 301.102 341.117 306.621 335.776 307.817C330.434 309.013 323.09 306.897 323.09 306.897L323.09 299.814Z" fill="#F9977A"/>
<path d="M349.93 310.353L326.858 308.941L350.604 276.493L373.159 277.973L349.93 310.353Z" fill="#6C7FD8"/>
<path d="M320.975 307.256L332.98 297.098C332.98 297.098 339.443 295.183 343.164 293.699C344.199 293.301 345.331 293.232 346.406 293.5C347.481 293.768 348.448 294.36 349.176 295.196C350.568 296.804 350.518 298.426 346.646 300.982C340.855 304.805 337.903 306.214 336.158 306.72C335.554 306.895 332.177 308.183 332.177 308.183L320.975 307.256Z" fill="#F9977A"/>
<path d="M336.459 298.8C337.337 298.582 338.202 298.313 339.049 297.994C339.901 297.69 340.732 297.332 341.552 296.951C342.374 296.568 343.172 296.138 343.944 295.662C344.725 295.197 345.453 294.648 346.116 294.026C344.548 294.929 342.942 295.693 341.319 296.456C339.702 297.23 338.068 297.966 336.459 298.8ZM337.998 300.934C338.971 300.745 339.93 300.492 340.87 300.176C341.813 299.87 342.739 299.51 343.641 299.097C344.55 298.688 345.422 298.202 346.247 297.642C347.099 297.112 347.828 296.404 348.384 295.569C347.684 296.252 346.889 296.83 346.024 297.286C345.173 297.756 344.305 298.203 343.412 298.6C341.638 299.424 339.817 300.15 337.998 300.934ZM339.923 302.586C340.742 302.449 341.55 302.249 342.338 301.99C343.13 301.739 343.906 301.442 344.664 301.102C346.196 300.443 347.607 299.533 348.84 298.41C348.107 298.805 347.392 299.199 346.658 299.562C345.918 299.913 345.187 300.274 344.439 300.604L339.923 302.586Z" fill="#DD765E"/>
<path d="M346.676 248.627L354.359 244.985C355.443 244.474 356.365 243.674 357.023 242.673C358.159 240.933 360.082 238.18 361.444 237.223C362.765 236.294 362.496 235.381 360.861 235.399C359.898 235.41 358.207 236.254 355.234 239.156L355.975 235.754C356.088 235.246 356.308 234.766 356.618 234.347C356.929 233.929 357.324 233.58 357.777 233.323L361.72 231.062C361.962 230.928 362.146 230.709 362.235 230.447C362.324 230.185 362.312 229.899 362.202 229.645L362.202 229.645C362.134 229.497 362.036 229.364 361.914 229.255C361.793 229.146 361.65 229.063 361.495 229.012C361.34 228.96 361.177 228.941 361.014 228.955C360.851 228.969 360.693 229.016 360.55 229.094L353.148 233.039C353.148 233.039 348.309 230.023 344.836 234.116C341.364 238.209 340.087 245.498 340.087 245.498L346.676 248.627Z" fill="#F9977A"/>
<path d="M350.344 234.989C350.868 234.755 351.366 234.468 351.831 234.132C352.294 233.797 352.734 233.432 353.148 233.039C352.592 233.205 352.07 233.468 351.605 233.814C351.134 234.147 350.709 234.542 350.344 234.989V234.989ZM348.633 234.176C349.089 233.849 349.528 233.499 349.949 233.128C350.146 232.935 350.365 232.772 350.575 232.599C350.785 232.419 351.017 232.266 351.265 232.145C350.968 232.126 350.672 232.196 350.414 232.345C350.159 232.484 349.918 232.647 349.695 232.833C349.258 233.208 348.898 233.664 348.633 234.176V234.176ZM346.542 234.106C346.745 233.711 346.853 233.327 347.055 232.996C347.219 232.641 347.491 232.347 347.833 232.155C347.602 232.119 347.367 232.169 347.172 232.297C346.982 232.433 346.825 232.609 346.711 232.812C346.503 233.21 346.443 233.668 346.542 234.106V234.106Z" fill="#DD765E"/>
<path d="M291.034 196.001C293.887 195.715 296.767 196.087 299.453 197.089C300.707 197.584 305.292 199.393 307.355 203.756C308.138 205.413 308.237 207.368 308.435 211.277C308.559 213.719 309.443 215.504 309.295 218.469C309.125 220.872 308.598 223.238 307.732 225.487C306.425 229.018 307.052 231.088 306.455 231.732C304.05 234.327 297.259 231.891 296.981 235.409C296.809 237.582 298.511 238.066 298.239 240.605C297.886 243.896 286.961 241.593 283.784 239.794C283.351 239.549 279.437 236.811 280.067 232.984C280.404 230.94 282.69 221.379 282.578 220.127C282.172 215.601 279.849 214.944 278.266 209.422C277.833 208.031 277.776 206.55 278.101 205.129C278.427 203.709 279.123 202.4 280.118 201.336C283.038 198.359 286.892 196.476 291.034 196.001Z" fill="#F9977A"/>
<path d="M307.212 216.182C306.689 216.152 306.295 215.62 306.331 214.993C306.367 214.366 306.819 213.882 307.342 213.912C307.865 213.942 308.259 214.474 308.223 215.101C308.188 215.728 307.735 216.212 307.212 216.182Z" fill="#0A0709"/>
<path d="M298.674 215.789C298.151 215.759 297.757 215.227 297.793 214.6C297.828 213.973 298.281 213.489 298.804 213.519C299.327 213.549 299.721 214.081 299.685 214.708C299.65 215.335 299.197 215.819 298.674 215.789Z" fill="#0A0709"/>
<path d="M309.302 213.112C309.424 213.112 309.543 213.074 309.642 213.004C309.741 212.934 309.816 212.834 309.857 212.72C309.897 212.605 309.901 212.48 309.867 212.363C309.834 212.246 309.765 212.143 309.671 212.066C308.659 211.321 307.45 210.89 306.194 210.828C304.939 210.766 303.693 211.076 302.613 211.719C302.477 211.795 302.378 211.922 302.336 212.072C302.294 212.222 302.314 212.383 302.39 212.518C302.466 212.654 302.593 212.754 302.743 212.796C302.893 212.838 303.053 212.818 303.189 212.742C304.067 212.223 305.078 211.969 306.097 212.012C307.117 212.054 308.102 212.392 308.934 212.982C309.038 213.066 309.168 213.112 309.302 213.112ZM300.454 212.705C300.575 212.705 300.694 212.667 300.793 212.597C300.893 212.527 300.968 212.427 301.008 212.312C301.048 212.198 301.052 212.073 301.019 211.956C300.985 211.839 300.917 211.735 300.822 211.659C299.81 210.913 298.601 210.483 297.346 210.421C296.091 210.359 294.845 210.669 293.765 211.312C293.63 211.388 293.53 211.515 293.488 211.665C293.446 211.815 293.465 211.976 293.542 212.111C293.579 212.179 293.63 212.238 293.691 212.285C293.751 212.333 293.821 212.368 293.895 212.389C294.045 212.431 294.206 212.411 294.341 212.335C295.22 211.817 296.23 211.564 297.249 211.606C298.268 211.649 299.253 211.986 300.086 212.575C300.19 212.659 300.32 212.705 300.454 212.705V212.705Z" fill="#1E1D22"/>
<path d="M302.048 213.004C301.753 213.96 301.793 214.989 302.161 215.92C302.48 216.858 302.935 217.745 303.511 218.551C303.81 218.959 304.23 219.26 304.15 219.657C304.051 220.088 303.789 220.464 303.418 220.706C302.59 221.185 301.615 221.34 300.679 221.142C301.149 221.317 301.652 221.392 302.153 221.36C302.654 221.328 303.143 221.19 303.587 220.956C303.821 220.824 304.023 220.643 304.181 220.426C304.339 220.209 304.45 219.961 304.504 219.699C304.523 219.555 304.513 219.409 304.473 219.269C304.434 219.13 304.366 219 304.274 218.887L303.821 218.312C303.253 217.541 302.789 216.699 302.439 215.808C302.04 214.931 301.904 213.957 302.048 213.004V213.004ZM286.514 212.674C286.158 212.638 285.799 212.679 285.46 212.794C285.121 212.908 284.811 213.094 284.55 213.338C284.287 213.575 284.055 213.844 283.858 214.139C283.668 214.433 283.52 214.752 283.419 215.087C283.844 214.57 284.307 214.084 284.804 213.635C285.046 213.416 285.31 213.224 285.593 213.063C285.881 212.893 286.191 212.762 286.514 212.674V212.674Z" fill="#DD765E"/>
<path d="M285.511 217.374C285.915 216.732 286.082 215.967 285.982 215.215C285.932 214.839 285.823 214.473 285.658 214.131C285.496 213.794 285.272 213.489 284.999 213.233C285.133 213.582 285.285 213.902 285.379 214.243C285.489 214.573 285.561 214.915 285.594 215.261C285.678 215.966 285.65 216.679 285.511 217.374V217.374Z" fill="#DD765E"/>
<path d="M299.651 234.983C299.651 234.983 292.959 234.795 289.391 229.494C287.689 226.967 287.929 222.024 288.25 219.157C288.395 217.871 288.248 216.568 287.821 215.347C287.227 213.654 286.51 211.352 284.832 211.124C283.596 210.956 283.113 210.616 282.609 211.752C281.775 213.63 282.955 215.798 283.776 217.308C284.951 219.469 286.015 219.978 285.963 221.433C285.923 222.543 282.528 224.644 281.927 224.182C280.701 223.24 281.527 220.625 278.376 214.167C276.387 210.088 275.418 209.296 275.288 206.801C275.242 205.915 275.05 202.248 277.433 200.23C278.538 199.294 279.124 199.622 283.811 197.957C285.11 197.528 286.384 197.031 287.63 196.468C291.385 194.708 291.352 193.713 293.523 193.224C295.483 192.783 295.559 193.585 299.263 193.544C302.834 193.504 303.188 192.754 304.812 193.283C307.632 194.2 308.859 197.208 309.189 198.016C309.855 199.413 310.159 200.955 310.072 202.501C309.833 204.068 309.157 205.536 308.122 206.736C307.635 207.171 305.882 204.455 304.905 203.418C303.947 202.403 302.784 202.747 301.222 202.769C299.699 202.79 299.737 203.706 297.451 204.404C296.636 204.652 293.498 203.119 292.378 204.783C291.185 206.556 290.316 206.738 290.75 208.459C291.021 209.534 290.757 210.827 290.228 213.414C289.848 215.27 291.094 221.873 291.094 221.873C291.36 222.44 291.836 222.881 292.422 223.102C293.008 223.323 293.657 223.306 294.231 223.057C295.975 222.29 297.768 221.639 299.597 221.107C300.69 220.802 301.835 220.736 302.956 220.912C304.077 221.088 305.146 221.502 306.093 222.127C306.745 222.554 307.412 223.029 307.939 223.453C308.285 223.729 308.556 224.088 308.727 224.497C308.898 224.906 308.963 225.351 308.916 225.791C308.579 228.585 307.034 235.385 299.651 234.983ZM306.484 225.537C306.275 224.189 304.236 223.575 303.072 223.226C302.151 222.865 301.144 222.784 300.177 222.994C299.947 223.051 297.861 223.636 297.597 225.222C297.332 226.809 299.121 228.006 299.402 228.186C300.078 228.619 300.852 228.877 301.653 228.939C302.454 229 303.257 228.863 303.992 228.538C305.077 228.059 306.69 226.833 306.484 225.537Z" fill="#1E1D22"/>
<path d="M298.515 225.065C298.515 225.065 302.078 228.591 305.579 225.39Z" fill="#0A0709"/>
<path d="M339.719 241.296C330.753 244.914 317.208 261.411 317.208 261.411L301.783 247.124L298.323 238.782L284.455 235.135C283.27 234.85 282.234 234.133 281.55 233.124C280.866 232.116 280.582 230.888 280.755 229.682L280.772 229.583L273.106 241.878C267.047 251.594 265.21 262.799 266.083 274.105L268.754 321.019C268.754 321.019 312.249 326.171 310.341 321.019L309.994 312.739L314.728 312.189L325.03 310.165L323.695 297.654L313.012 297.286L309.006 294.159L308.578 281.086L310.944 281.478C317.148 282.505 324.664 279.702 328.537 274.916L347.54 250.373C347.057 248.345 346.095 246.462 344.734 244.883C343.373 243.304 341.653 242.074 339.719 241.296V241.296Z" fill="#FFBA55"/>
<path d="M276.49 236.451C279.522 238.193 282.583 239.879 285.673 241.509C287.22 242.321 288.754 243.159 290.312 243.949L294.977 246.338L295.192 246.448L295.283 246.23C296.317 243.757 297.354 241.285 298.323 238.782C297.129 241.185 296.004 243.619 294.876 246.051L295.182 245.944L290.552 243.488C289.012 242.663 287.447 241.886 285.896 241.083C282.789 239.484 279.653 237.94 276.49 236.451ZM309.006 294.159C307.52 293.553 305.994 293.053 304.438 292.661C302.888 292.248 301.331 291.868 299.764 291.52C296.634 290.821 293.489 290.19 290.33 289.627L290.429 289.748L291.185 271.005C291.365 267.873 291.297 264.732 290.982 261.611C290.729 258.457 289.828 255.388 288.335 252.598C287.535 251.211 286.432 250.024 285.108 249.124C283.761 248.244 282.207 247.732 280.601 247.637C279.001 247.529 277.397 247.772 275.901 248.35C274.405 248.927 273.053 249.824 271.941 250.979C271.385 251.555 270.892 252.187 270.467 252.866C270.058 253.55 269.714 254.271 269.439 255.02C268.871 256.488 268.401 257.993 268.032 259.524C267.306 262.581 266.835 265.694 266.623 268.829C266.231 275.087 266.403 281.368 267.139 287.595C267.471 290.709 267.932 293.805 268.435 296.894C268.687 298.469 269.287 299.968 270.19 301.283C271.093 302.598 272.277 303.695 273.657 304.496C274.34 304.894 275.061 305.226 275.807 305.487L278.005 306.312C279.472 306.854 280.951 307.367 282.433 307.867C285.401 308.858 288.396 309.773 291.433 310.533C294.465 311.312 297.537 311.923 300.636 312.364C303.733 312.827 306.87 312.953 309.994 312.739C306.872 312.914 303.74 312.749 300.653 312.249C297.565 311.771 294.507 311.123 291.491 310.308C288.474 309.501 285.486 308.594 282.527 307.588C281.05 307.082 279.577 306.563 278.114 306.016L275.924 305.184C275.196 304.925 274.494 304.598 273.827 304.207C272.495 303.427 271.353 302.361 270.485 301.086C269.616 299.81 269.042 298.357 268.805 296.832C268.316 293.748 267.869 290.657 267.552 287.551C266.846 281.349 266.7 275.095 267.117 268.867C267.34 265.761 267.82 262.679 268.552 259.652C268.908 258.141 269.365 256.656 269.92 255.206C270.424 253.756 271.235 252.431 272.297 251.322C273.357 250.214 274.647 249.35 276.076 248.792C277.504 248.234 279.038 247.995 280.569 248.092C282.1 248.175 283.583 248.656 284.871 249.489C286.143 250.348 287.205 251.483 287.978 252.81C289.452 255.547 290.348 258.557 290.608 261.654C290.934 264.756 291.015 267.879 290.849 270.993L290.192 289.739L290.188 289.843L290.291 289.86C293.451 290.388 296.6 290.98 299.739 291.636C301.307 291.967 302.868 292.327 304.423 292.719C305.982 293.091 307.514 293.572 309.006 294.159V294.159ZM301.783 247.124L303.336 251.21C303.872 252.567 304.41 253.915 304.865 255.293C305.802 258.039 306.518 260.855 307.005 263.714C307.26 265.141 307.456 266.576 307.592 268.021C307.732 269.461 307.782 270.919 307.898 272.372C308.099 275.278 308.309 278.184 308.578 281.086C308.531 278.172 308.424 275.26 308.309 272.349C308.255 269.426 307.995 266.51 307.532 263.623C307.02 260.74 306.257 257.907 305.251 255.157C304.221 252.414 302.977 249.784 301.783 247.124ZM317.209 261.411C317.687 263.085 318.04 264.792 318.263 266.518C318.374 267.375 318.439 268.237 318.456 269.101C318.467 269.973 318.432 270.845 318.353 271.714C318.894 270.015 319.045 268.216 318.794 266.451C318.683 265.57 318.496 264.701 318.233 263.853C317.98 263.004 317.637 262.186 317.209 261.411V261.411Z" fill="#E6952A"/>
<path d="M280.963 297.102C282.252 295.563 283.67 294.136 285.202 292.837C285.968 292.199 286.775 291.614 287.618 291.084C288.477 290.564 289.378 290.116 290.31 289.743C289.302 289.925 288.327 290.256 287.417 290.724C286.505 291.197 285.648 291.768 284.86 292.426C284.077 293.083 283.352 293.809 282.696 294.593C282.033 295.368 281.452 296.208 280.963 297.102V297.102ZM271.615 307.773C271.945 308.778 272.412 309.733 273.004 310.61C273.589 311.502 274.291 312.311 275.092 313.016C275.901 313.722 276.831 314.278 277.835 314.659C278.834 315.03 279.899 315.191 280.963 315.132C279.938 314.989 278.938 314.701 277.993 314.278C277.07 313.842 276.212 313.281 275.441 312.611C274.671 311.932 273.967 311.182 273.337 310.371C272.7 309.549 272.124 308.68 271.615 307.773ZM272.76 313.66C273.261 314.562 273.937 315.354 274.748 315.991C275.552 316.643 276.445 317.179 277.399 317.582C278.357 317.97 279.359 318.237 280.382 318.377C280.888 318.464 281.405 318.464 281.913 318.508C282.426 318.5 282.936 318.481 283.443 318.444C282.43 318.311 281.431 318.2 280.455 317.972C279.483 317.756 278.529 317.46 277.605 317.089C276.69 316.701 275.816 316.224 274.995 315.664C274.164 315.098 273.413 314.424 272.76 313.66V313.66ZM313.011 297.286C312.822 298.29 312.691 299.298 312.569 300.306C312.441 301.314 312.354 302.325 312.268 303.337C312.195 304.349 312.122 305.362 312.091 306.377C312.054 307.392 312.026 308.408 312.058 309.429C312.248 308.426 312.379 307.418 312.501 306.409C312.629 305.401 312.716 304.39 312.801 303.379C312.874 302.366 312.947 301.354 312.977 300.338C313.014 299.323 313.042 298.307 313.011 297.286ZM334.451 244.395C335.095 245.259 335.782 246.084 336.475 246.902C337.165 247.724 337.885 248.519 338.605 249.312C339.334 250.098 340.065 250.883 340.826 251.639C341.583 252.399 342.346 253.154 343.153 253.868C342.51 253.003 341.822 252.179 341.129 251.361C340.439 250.538 339.719 249.744 338.999 248.951C338.269 248.166 337.538 247.381 336.777 246.625C336.021 245.864 335.257 245.11 334.451 244.395Z" fill="#E6952A"/>
<path d="M353.102 263.263H353.493V274.646H353.102V263.263Z" fill="#7CA1B1"/>
<path d="M323.165 284.402L335.567 289.564L335.416 289.925L323.015 284.763L323.165 284.402Z" fill="#7CA1B1"/>
<path d="M336.642 268.878L341.467 280.261L341.108 280.413L336.283 269.03L336.642 268.878Z" fill="#7CA1B1"/>
<path d="M268.754 321.019C268.357 329.043 270.615 336.973 275.178 343.585C277.422 346.738 280.396 349.301 283.846 351.055C287.297 352.808 291.12 353.7 294.99 353.654L332.631 353.546C339.009 353.834 344.437 353.772 346.305 359.66L370.572 436.163L389.152 433.957L374.003 349.877C374.003 349.877 373.431 333.136 355.137 330.58L310.831 322.586L310.142 316.279L268.754 321.019Z" fill="#8B9D36"/>
<path d="M310.731 322.754L310.93 322.418L301.882 317.068L301.683 317.404L310.731 322.754Z" fill="#5E7C24"/>
<path d="M353.297 381.703C352.937 378.235 352.552 374.771 352.143 371.31C351.853 367.796 350.768 364.394 348.97 361.362C347.216 358.27 344.484 355.849 341.205 354.477C340.381 354.154 339.518 353.941 338.639 353.844C337.762 353.795 336.883 353.817 336.01 353.911C334.288 354.186 332.528 354.108 330.838 353.681C332.52 354.17 334.284 354.312 336.023 354.099C336.886 354.027 337.753 354.024 338.616 354.088C339.468 354.2 340.303 354.424 341.097 354.755C344.286 356.14 346.934 358.531 348.637 361.563C350.421 364.545 351.515 367.888 351.84 371.348C352.302 374.802 352.788 378.254 353.297 381.703Z" fill="#5E7C24"/>
<path d="M206.092 321.669H214.729V458.668H206.092V321.669Z" fill="#935B50"/>
<path d="M191.046 315.045H447.614C448.436 315.045 449.103 315.712 449.103 316.534V320.18C449.103 321.002 448.436 321.669 447.614 321.669H191.046C190.224 321.669 189.557 321.002 189.557 320.18V316.534C189.557 315.712 190.224 315.045 191.046 315.045Z" fill="#935B50"/>
<path d="M423.242 321.669H431.879V458.668H423.242V321.669Z" fill="#935B50"/>
<path d="M438.769 321.669H199.301V340.357C199.301 340.749 199.378 341.136 199.528 341.497C199.677 341.858 199.897 342.187 200.173 342.463C200.45 342.74 200.778 342.959 201.139 343.109C201.501 343.258 201.888 343.335 202.279 343.335H435.791C436.182 343.335 436.569 343.258 436.93 343.109C437.292 342.959 437.62 342.74 437.896 342.463C438.173 342.187 438.392 341.858 438.542 341.497C438.692 341.136 438.769 340.749 438.769 340.357V321.669V321.669Z" fill="#C38F86"/>
<path d="M224.621 159.467C209.138 159.467 196.587 146.916 196.587 131.433C196.587 115.95 209.138 103.399 224.621 103.399C240.104 103.399 252.655 115.95 252.655 131.433C252.655 146.916 240.104 159.467 224.621 159.467Z" fill="#FFBA55"/>
<path d="M224.621 159.968C230.264 159.968 235.781 158.294 240.473 155.159C245.166 152.024 248.823 147.567 250.983 142.353C253.143 137.139 253.708 131.402 252.607 125.867C251.506 120.332 248.788 115.247 244.797 111.257C240.807 107.266 235.723 104.549 230.187 103.448C224.652 102.347 218.915 102.912 213.701 105.071C208.487 107.231 204.031 110.888 200.895 115.581C197.76 120.273 196.087 125.79 196.087 131.434C196.095 138.999 199.104 146.251 204.454 151.601C209.803 156.95 217.056 159.959 224.621 159.968V159.968ZM224.621 103.899C230.066 103.899 235.39 105.514 239.918 108.54C244.446 111.565 247.975 115.866 250.059 120.897C252.143 125.928 252.688 131.464 251.626 136.805C250.563 142.146 247.941 147.052 244.09 150.903C240.24 154.754 235.333 157.376 229.992 158.439C224.651 159.501 219.115 158.956 214.084 156.872C209.053 154.788 204.752 151.259 201.727 146.731C198.701 142.203 197.087 136.879 197.087 131.434C197.095 124.134 199.998 117.135 205.16 111.973C210.322 106.811 217.321 103.908 224.621 103.899V103.899Z" fill="#D77F4A"/>
<path d="M224.621 133.934C224.686 133.934 224.751 133.921 224.812 133.896C224.873 133.87 224.928 133.834 224.974 133.787C225.021 133.741 225.058 133.686 225.083 133.625C225.108 133.564 225.121 133.499 225.121 133.434V115.356C225.121 115.224 225.068 115.097 224.974 115.003C224.88 114.909 224.753 114.856 224.621 114.856C224.488 114.856 224.361 114.909 224.267 115.003C224.173 115.097 224.121 115.224 224.121 115.356V133.434C224.121 133.499 224.134 133.564 224.159 133.625C224.184 133.686 224.221 133.741 224.267 133.787C224.313 133.834 224.369 133.87 224.429 133.896C224.49 133.921 224.555 133.934 224.621 133.934V133.934Z" fill="#D77F4A"/>
<path d="M209.067 137.674C209.145 137.674 209.222 137.656 209.292 137.621L228.048 128.214C228.166 128.154 228.256 128.05 228.297 127.924C228.339 127.798 228.329 127.661 228.269 127.543C228.21 127.425 228.106 127.335 227.98 127.293C227.855 127.251 227.718 127.26 227.599 127.319L208.842 136.727C208.742 136.777 208.661 136.86 208.613 136.962C208.566 137.064 208.554 137.179 208.58 137.289C208.606 137.399 208.668 137.496 208.757 137.566C208.845 137.636 208.954 137.674 209.067 137.674V137.674Z" fill="#D77F4A"/>
<path d="M514.87 430.424C515.806 424.909 516.345 419.335 516.484 413.743C516.645 408.145 516.425 402.543 515.823 396.976C515.197 391.404 514.049 385.903 512.395 380.546C511.526 377.882 510.504 375.271 509.334 372.726C508.11 370.21 506.711 367.783 505.147 365.464C508.07 370.217 510.349 375.339 511.921 380.693C512.691 383.368 513.384 386.064 513.924 388.795C514.45 391.529 514.87 394.28 515.184 397.049C515.806 402.587 516.075 408.16 515.99 413.733C515.965 416.52 515.857 419.306 515.667 422.091C515.491 424.875 515.254 427.658 514.87 430.424Z" fill="#50661A"/>
<path d="M514.87 388.587C514.87 388.587 544.252 392.288 557.039 379.68C566.528 370.324 557.503 354.22 544.498 357.129C535.792 359.077 525.053 366.816 514.87 388.587Z" fill="#5E7C24"/>
<path d="M514.87 388.587C518.994 387.332 523.054 385.862 527.05 384.235C531.045 382.602 534.961 380.788 538.799 378.792C540.708 377.781 542.58 376.703 544.417 375.559C546.265 374.433 548.046 373.201 549.753 371.87C551.469 370.548 553.074 369.087 554.553 367.504C556.024 365.911 557.217 364.082 558.081 362.093C557.129 364.024 555.858 365.78 554.323 367.288C552.814 368.813 551.186 370.213 549.452 371.476C545.983 374.008 542.32 376.264 538.498 378.224C534.713 380.26 530.8 382.055 526.859 383.78C524.887 384.641 522.9 385.468 520.899 386.262C518.905 387.075 516.898 387.859 514.87 388.587Z" fill="#50661A"/>
<path d="M546.731 373.73L546.702 369.395C546.71 367.955 546.702 366.516 546.783 365.082C546.829 363.652 546.956 362.225 547.164 360.808L547.364 359.758C547.435 359.409 547.558 359.077 547.649 358.732C547.755 358.392 547.885 358.061 548.037 357.739C548.21 357.426 548.403 357.123 548.614 356.833C547.59 357.9 546.915 359.254 546.678 360.714C546.39 362.145 546.211 363.597 546.141 365.055C546.112 366.51 546.111 367.964 546.209 369.412C546.297 370.86 546.471 372.302 546.731 373.73V373.73ZM560.559 373.73C558.832 373.43 557.128 373.182 555.463 372.798C554.638 372.612 553.83 372.357 553.046 372.037C552.244 371.755 551.573 371.189 551.158 370.447C551.264 370.889 551.468 371.302 551.755 371.655C552.042 372.008 552.405 372.291 552.817 372.485C553.603 372.91 554.444 373.227 555.316 373.425C557.034 373.817 558.806 373.92 560.559 373.73V373.73ZM555.247 381.258C552.944 380.964 550.664 380.506 548.426 379.887C547.328 379.581 546.276 379.13 545.297 378.545C544.295 377.98 543.55 377.051 543.215 375.951C543.27 376.555 543.46 377.138 543.771 377.658C544.082 378.179 544.505 378.623 545.01 378.958C545.989 379.656 547.082 380.179 548.24 380.504C550.513 381.163 552.885 381.418 555.247 381.258V381.258ZM538.818 378.423C538.328 376.987 537.878 375.546 537.468 374.1C537.07 372.649 536.678 371.198 536.418 369.721C535.768 366.785 535.632 363.759 536.016 360.777C535.56 362.237 535.328 363.757 535.33 365.287C535.352 366.816 535.505 368.34 535.787 369.843C536.096 371.336 536.5 372.807 536.998 374.248C537.49 375.687 538.099 377.083 538.818 378.423V378.423ZM543.215 386.925C542.278 386.679 541.372 386.372 540.484 386.044C539.602 385.721 538.751 385.316 537.943 384.836C537.144 384.365 536.42 383.778 535.795 383.094C535.198 382.364 534.743 381.528 534.453 380.63C534.509 381.623 534.836 382.582 535.398 383.403C535.998 384.204 536.75 384.879 537.611 385.389C538.461 385.89 539.376 386.271 540.33 386.52C541.269 386.783 542.24 386.919 543.215 386.925V386.925ZM528.327 367.392C527.685 368.6 527.22 369.894 526.945 371.234C526.667 372.583 526.559 373.961 526.623 375.336C526.7 376.716 526.991 378.076 527.484 379.367C527.974 380.648 528.679 381.837 529.567 382.882C528.896 381.719 528.355 380.486 527.953 379.205C527.548 377.94 527.316 376.627 527.265 375.3C527.18 373.971 527.236 372.637 527.431 371.32C527.62 369.988 527.919 368.674 528.327 367.392V367.392ZM530.227 388.587C529.159 388.052 528.109 387.593 527.102 387.054C526.077 386.537 525.129 385.882 524.283 385.106C524.806 386.21 525.696 387.099 526.8 387.622C527.858 388.191 529.028 388.52 530.227 388.587V388.587ZM520.926 377.306C520.342 378.763 520.001 380.306 519.916 381.873C519.863 382.663 519.901 383.456 520.03 384.237C520.131 385.031 520.44 385.784 520.926 386.42C520.676 385.699 520.542 384.943 520.529 384.18C520.496 383.423 520.506 382.665 520.559 381.909C520.638 380.387 520.822 378.867 520.926 377.306Z" fill="#50661A"/>
<path d="M515.938 388.439C515.938 388.439 538.831 369.653 538.471 351.699C538.204 338.376 520.306 333.854 513.475 345.296C508.901 352.956 507.135 366.074 515.938 388.439Z" fill="#C4CE6E"/>
<path d="M515.938 388.439C517.92 384.604 519.704 380.67 521.282 376.651C522.872 372.636 524.263 368.545 525.454 364.379C526.028 362.293 526.53 360.187 526.958 358.062C527.41 355.94 527.733 353.794 527.926 351.633C528.131 349.47 528.159 347.293 528.009 345.125C527.85 342.956 527.312 340.832 526.42 338.849C527.123 340.878 527.495 343.007 527.52 345.154C527.572 347.293 527.452 349.432 527.162 351.551C526.594 355.799 525.701 359.998 524.491 364.111C523.383 368.257 521.995 372.327 520.565 376.381C519.85 378.409 519.1 380.425 518.315 382.43C517.562 384.447 516.749 386.441 515.938 388.439Z" fill="#8B9D36"/>
<path d="M527.062 355.091C525.031 353.002 522.941 351.035 520.948 348.982C519.954 347.956 518.995 346.904 518.095 345.807C517.658 345.253 517.254 344.674 516.884 344.073C516.7 343.771 516.537 343.457 516.397 343.133C516.276 342.796 516.174 342.452 516.09 342.104C516.092 343.6 516.572 345.057 517.46 346.261C518.279 347.481 519.206 348.625 520.231 349.678C522.263 351.771 524.56 353.591 527.062 355.091V355.091ZM536.572 345.052C535.067 345.999 533.707 347.032 532.293 347.962C531.601 348.426 530.878 348.843 530.131 349.211C529.397 349.614 528.549 349.758 527.723 349.619C528.11 349.881 528.553 350.048 529.017 350.105C529.48 350.162 529.951 350.108 530.39 349.947C531.26 349.688 532.087 349.301 532.843 348.797C534.328 347.816 535.597 346.542 536.572 345.052V345.052ZM538.384 354.086C536.439 355.428 534.59 356.812 532.61 357.94C531.647 358.519 530.617 358.978 529.543 359.308C528.468 359.664 527.3 359.615 526.257 359.171C526.721 359.58 527.274 359.875 527.873 360.031C528.471 360.188 529.098 360.202 529.702 360.072C530.904 359.862 532.058 359.434 533.106 358.808C534.137 358.207 535.104 357.502 535.992 356.705C536.885 355.925 537.688 355.046 538.384 354.086V354.086ZM525.027 364.064C523.668 363.375 522.344 362.654 521.023 361.942C519.712 361.211 518.408 360.479 517.155 359.67C515.898 358.874 514.684 358.011 513.518 357.087C512.357 356.136 511.278 355.091 510.29 353.962C510.978 355.34 511.893 356.593 512.997 357.668C514.107 358.734 515.32 359.688 516.619 360.514C519.203 362.159 522.046 363.359 525.027 364.064V364.064ZM534.224 366.718C533.35 367.164 532.497 367.585 531.64 367.973C530.798 368.363 529.927 368.685 529.034 368.938C528.162 369.188 527.261 369.321 526.354 369.332C525.42 369.287 524.499 369.09 523.628 368.75C524.355 369.459 525.278 369.932 526.277 370.109C527.289 370.251 528.32 370.18 529.303 369.901C530.264 369.625 531.177 369.205 532.012 368.656C532.848 368.132 533.595 367.478 534.224 366.718ZM509.804 364.093C510.591 366.764 512.15 369.143 514.285 370.93C514.822 371.377 515.388 371.787 515.979 372.158C516.279 372.337 516.597 372.486 516.904 372.65C517.208 372.821 517.528 372.962 517.86 373.07C519.147 373.579 520.519 373.842 521.903 373.845C520.619 373.467 519.373 372.969 518.182 372.359C517.015 371.76 515.923 371.024 514.93 370.167C513.923 369.316 512.994 368.377 512.154 367.361C511.299 366.325 510.514 365.234 509.804 364.093V364.093ZM526.499 377.29C525.302 377.577 524.251 377.986 523.18 378.335C522.107 378.716 521.005 379.009 519.884 379.211C520.441 379.496 521.062 379.633 521.687 379.609C522.303 379.589 522.913 379.479 523.498 379.283C524.073 379.086 524.621 378.82 525.132 378.491C525.652 378.171 526.114 377.765 526.499 377.29V377.29ZM511.912 376.285C512.17 377.034 512.521 377.748 512.956 378.41C513.38 379.077 513.865 379.703 514.405 380.28C514.948 380.869 515.567 381.384 516.244 381.813C516.916 382.279 517.711 382.536 518.529 382.552C517.868 382.177 517.258 381.719 516.714 381.189C516.171 380.68 515.64 380.153 515.131 379.594C514.085 378.504 513.091 377.355 511.912 376.285Z" fill="#8B9D36"/>
<path d="M516.626 419.905C516.626 419.905 546.221 420.969 557.832 407.271C566.449 397.105 556.022 381.871 543.329 385.929C534.831 388.646 524.826 397.312 516.626 419.905Z" fill="#C4CE6E"/>
<path d="M516.626 419.905C520.65 418.342 524.591 416.572 528.433 414.603C532.283 412.646 536.032 410.488 539.682 408.163C541.493 406.98 543.262 405.733 544.99 404.422C546.732 403.131 548.396 401.736 549.97 400.243C551.555 398.757 553.016 397.143 554.339 395.419C555.655 393.688 556.657 391.739 557.301 389.662C556.485 391.648 555.355 393.491 553.952 395.117C552.576 396.755 551.071 398.279 549.451 399.676C546.214 402.486 542.766 405.043 539.138 407.326C535.563 409.701 531.829 411.833 528.074 413.927C526.196 414.974 524.3 415.99 522.385 416.973C520.485 417.987 518.556 418.944 516.626 419.905Z" fill="#8B9D36"/>
<path d="M547.034 402.265C546.894 399.354 546.628 396.496 546.493 393.638C546.427 392.211 546.404 390.788 546.455 389.37C546.494 388.665 546.574 387.963 546.694 387.268C546.756 386.92 546.841 386.577 546.95 386.241C547.084 385.909 547.234 385.583 547.402 385.267C546.413 386.39 545.81 387.8 545.678 389.29C545.485 390.746 545.423 392.217 545.494 393.685C545.632 396.6 546.15 399.484 547.034 402.265V402.265ZM560.807 401.031C559.053 400.745 557.349 400.619 555.673 400.381C554.847 400.271 554.029 400.106 553.225 399.886C552.409 399.703 551.678 399.249 551.151 398.599C551.267 399.052 551.489 399.47 551.799 399.82C552.108 400.169 552.497 400.44 552.932 400.61C553.756 400.992 554.633 401.248 555.533 401.371C557.295 401.618 559.09 401.503 560.807 401.031ZM556.188 409.003C553.841 408.722 551.539 408.536 549.308 408.072C548.203 407.868 547.127 407.531 546.104 407.068C545.062 406.623 544.218 405.813 543.73 404.791C543.807 405.404 544.027 405.991 544.372 406.505C544.718 407.018 545.178 407.443 545.718 407.745C546.758 408.383 547.906 408.826 549.105 409.051C550.276 409.282 551.467 409.394 552.661 409.383C553.847 409.39 555.03 409.262 556.188 409.003V409.003ZM539.571 407.645C539.008 406.229 538.492 404.812 537.972 403.404C537.473 401.989 536.98 400.577 536.576 399.142C536.161 397.712 535.821 396.263 535.558 394.798C535.317 393.317 535.2 391.819 535.206 390.319C534.811 391.808 534.668 393.353 534.784 394.889C534.91 396.423 535.189 397.94 535.616 399.419C536.464 402.363 537.801 405.144 539.571 407.645V407.645ZM544.709 415.721C543.759 415.477 542.841 415.228 541.942 414.952C541.052 414.687 540.186 414.352 539.349 413.951C538.53 413.561 537.766 413.064 537.079 412.472C536.409 411.82 535.849 411.064 535.421 410.233C535.497 411.245 535.875 412.211 536.508 413.004C537.172 413.781 537.992 414.409 538.914 414.85C539.817 415.279 540.779 415.569 541.769 415.71C542.742 415.87 543.735 415.874 544.709 415.721V415.721ZM528.138 397.593C526.96 400.117 526.555 402.932 526.973 405.685C527.08 406.375 527.233 407.056 527.431 407.726C527.537 408.058 527.677 408.38 527.799 408.707C527.913 409.036 528.06 409.354 528.237 409.654C528.865 410.888 529.72 411.993 530.756 412.911C530.043 411.778 529.439 410.58 528.949 409.335C528.471 408.113 528.139 406.839 527.962 405.539C527.77 404.235 527.695 402.916 527.738 401.599C527.781 400.256 527.915 398.918 528.138 397.593V397.593ZM531.921 418.535C530.834 417.958 529.776 417.569 528.742 417.122C527.685 416.698 526.665 416.188 525.691 415.598C525.92 416.18 526.295 416.694 526.78 417.089C527.255 417.482 527.785 417.804 528.353 418.043C528.914 418.276 529.502 418.439 530.102 418.531C530.704 418.634 531.319 418.636 531.921 418.535V418.535ZM521.651 408.129C521.348 408.861 521.139 409.628 521.027 410.413C520.903 411.193 520.853 411.984 520.876 412.773C520.894 413.575 521.016 414.37 521.241 415.14C521.436 415.934 521.861 416.653 522.464 417.206C522.217 416.488 522.063 415.741 522.005 414.983C521.935 414.242 521.886 413.495 521.874 412.74C521.811 411.231 521.826 409.711 521.651 408.129Z" fill="#8B9D36"/>
<path d="M514.878 390.575C514.878 390.575 485.341 392.719 473.238 379.453C464.256 369.608 474.12 354.004 486.953 357.596C495.544 360.001 505.859 368.296 514.878 390.575Z" fill="#5E7C24"/>
<path d="M514.878 390.575C512.891 389.741 510.928 388.852 508.98 387.935C507.025 387.033 505.085 386.102 503.159 385.141C499.315 383.211 495.502 381.212 491.83 378.978C488.117 376.819 484.579 374.373 481.248 371.661C479.583 370.308 478.031 368.824 476.605 367.222C475.151 365.635 473.975 363.814 473.127 361.836C473.884 363.867 474.979 365.757 476.364 367.425C477.757 369.084 479.283 370.627 480.927 372.039C482.561 373.458 484.275 374.782 486.06 376.005C487.833 377.243 489.646 378.418 491.5 379.53C495.219 381.729 499.034 383.748 502.944 385.585C506.849 387.421 510.825 389.104 514.878 390.575Z" fill="#50661A"/>
<path d="M483.846 374.056C484.181 372.644 484.431 371.213 484.595 369.771C484.77 368.33 484.846 366.878 484.894 365.424C484.901 363.964 484.798 362.505 484.587 361.06C484.427 359.59 483.824 358.203 482.858 357.083C483.054 357.383 483.23 357.696 483.387 358.018C483.522 358.347 483.634 358.685 483.721 359.03C483.795 359.379 483.9 359.717 483.952 360.07L484.096 361.129C484.229 362.554 484.28 363.986 484.251 365.417C484.257 366.853 484.172 368.289 484.104 369.729L483.846 374.056ZM470.038 373.325C471.778 373.608 473.552 373.598 475.289 373.298C476.17 373.145 477.027 372.874 477.834 372.491C478.256 372.319 478.633 372.055 478.938 371.718C479.244 371.381 479.469 370.979 479.598 370.543C479.145 371.262 478.445 371.792 477.629 372.032C476.83 372.31 476.009 372.521 475.176 372.664C473.492 372.959 471.778 373.116 470.038 373.325ZM474.945 381.124C477.295 381.408 479.676 381.278 481.982 380.74C483.155 380.477 484.274 380.012 485.289 379.367C485.811 379.059 486.257 378.638 486.594 378.135C486.932 377.632 487.153 377.059 487.24 376.46C486.847 377.541 486.054 378.429 485.024 378.94C484.016 379.472 482.941 379.867 481.828 380.115C479.56 380.614 477.26 380.951 474.945 381.124V381.124ZM491.501 379.16C492.289 377.86 492.97 376.498 493.538 375.087C494.111 373.674 494.593 372.227 494.98 370.753C495.341 369.266 495.574 367.752 495.677 366.226C495.76 364.699 495.609 363.168 495.23 361.687C495.457 364.685 495.161 367.699 494.356 370.596C494.019 372.058 493.55 373.486 493.076 374.914C492.594 376.339 492.068 377.755 491.501 379.16ZM486.66 387.418C487.635 387.464 488.611 387.379 489.563 387.166C490.529 386.968 491.462 386.636 492.337 386.18C493.224 385.716 494.011 385.082 494.652 384.314C495.257 383.524 495.634 382.584 495.742 381.595C495.405 382.476 494.907 383.286 494.272 383.984C493.611 384.634 492.857 385.182 492.035 385.611C491.203 386.047 490.332 386.406 489.434 386.682C488.53 386.963 487.608 387.222 486.66 387.418ZM502.559 368.698C502.899 370 503.128 371.328 503.246 372.669C503.372 373.994 503.357 375.329 503.202 376.651C503.081 377.974 502.78 379.273 502.309 380.515C501.84 381.773 501.234 382.976 500.502 384.101C501.445 383.105 502.211 381.955 502.768 380.701C503.329 379.438 503.691 378.096 503.842 376.722C503.978 375.352 503.943 373.97 503.736 372.609C503.533 371.256 503.137 369.939 502.559 368.698V368.698ZM499.542 389.764C500.743 389.76 501.929 389.493 503.015 388.981C504.146 388.517 505.081 387.677 505.662 386.602C504.776 387.332 503.794 387.936 502.743 388.398C501.709 388.883 500.637 389.286 499.542 389.764ZM509.427 378.99C509.448 380.555 509.551 382.082 509.549 383.606C509.562 384.364 509.532 385.121 509.459 385.876C509.406 386.637 509.233 387.384 508.945 388.091C509.464 387.481 509.812 386.746 509.955 385.958C510.125 385.185 510.205 384.395 510.193 383.604C510.191 382.034 509.932 380.476 509.427 378.99Z" fill="#50661A"/>
<path d="M516.001 419.569C516.001 419.569 486.465 421.712 474.361 408.446C465.38 398.602 475.244 382.997 488.077 386.59C496.668 388.995 506.983 397.29 516.001 419.569Z" fill="#8B9D36"/>
<path d="M516.001 419.569C514.037 418.679 512.074 417.793 510.139 416.849C508.192 415.932 506.26 414.987 504.342 414.013C500.514 412.057 496.704 410.063 493.045 407.819C489.336 405.67 485.797 403.24 482.459 400.55C480.79 399.214 479.23 397.746 477.795 396.159C476.334 394.585 475.137 392.785 474.25 390.83C474.969 392.882 476.042 394.793 477.42 396.475C478.805 398.15 480.323 399.709 481.962 401.137C483.59 402.571 485.303 403.904 487.092 405.131C488.864 406.376 490.678 407.558 492.532 408.676C496.264 410.866 500.09 412.885 504.009 414.701C507.92 416.529 511.923 418.154 516.001 419.569Z" fill="#5E7C24"/>
<path d="M484.97 403.049C485.752 400.238 486.164 397.337 486.195 394.42C486.213 392.95 486.098 391.483 485.851 390.034C485.666 388.549 485.011 387.163 483.982 386.076C484.161 386.387 484.324 386.706 484.469 387.034C484.59 387.366 484.688 387.705 484.762 388.051C484.908 388.741 485.013 389.44 485.078 390.143C485.181 391.557 485.21 392.981 485.196 394.409C485.165 397.27 485.004 400.136 484.97 403.049ZM471.161 402.319C472.894 402.728 474.692 402.778 476.444 402.466C477.339 402.311 478.205 402.023 479.015 401.611C479.444 401.426 479.822 401.141 480.119 400.78C480.416 400.419 480.622 399.993 480.722 399.537C480.219 400.206 479.505 400.686 478.696 400.899C477.9 401.147 477.089 401.342 476.268 401.483C474.602 401.781 472.904 401.969 471.161 402.319ZM476.068 410.117C477.234 410.334 478.421 410.418 479.606 410.369C480.8 410.336 481.986 410.181 483.148 409.907C484.338 409.638 485.469 409.154 486.485 408.479C487.013 408.157 487.458 407.715 487.784 407.19C488.11 406.664 488.309 406.069 488.363 405.453C487.913 406.493 487.099 407.333 486.074 407.815C485.069 408.316 484.006 408.692 482.909 408.936C480.697 409.481 478.403 409.751 476.068 410.117ZM492.624 408.154C494.301 405.59 495.536 402.762 496.277 399.789C496.649 398.296 496.873 396.769 496.943 395.232C497.003 393.692 496.803 392.154 496.354 390.681C496.415 392.179 496.352 393.681 496.165 395.169C495.956 396.642 495.67 398.104 495.307 399.547C494.955 400.996 494.514 402.425 494.067 403.858C493.599 405.284 493.135 406.719 492.624 408.154ZM487.784 416.412C488.763 416.529 489.755 416.489 490.722 416.293C491.706 416.117 492.657 415.792 493.544 415.331C494.449 414.856 495.245 414.198 495.881 413.398C496.484 412.582 496.827 411.603 496.866 410.589C496.468 411.435 495.936 412.211 495.291 412.887C494.625 413.504 493.88 414.029 493.076 414.447C492.254 414.879 491.4 415.245 490.521 415.542C489.633 415.852 488.724 416.134 487.784 416.412ZM503.683 397.692C503.954 399.008 504.136 400.34 504.229 401.68C504.319 402.995 504.293 404.315 504.148 405.626C504.019 406.931 503.734 408.217 503.301 409.455C502.857 410.718 502.296 411.936 501.626 413.095C502.627 412.14 503.441 411.004 504.024 409.749C504.19 409.442 504.325 409.119 504.428 408.786C504.537 408.455 504.666 408.128 504.759 407.792C504.932 407.116 505.06 406.429 505.142 405.735C505.459 402.969 504.952 400.171 503.683 397.692V397.692ZM500.666 418.758C501.272 418.837 501.886 418.813 502.484 418.687C503.081 418.574 503.662 418.389 504.214 418.136C504.773 417.876 505.291 417.535 505.752 417.126C506.222 416.713 506.578 416.186 506.785 415.595C505.833 416.221 504.832 416.767 503.792 417.23C502.775 417.714 501.731 418.142 500.666 418.758ZM510.55 407.984C510.432 409.572 510.503 411.089 510.495 412.6C510.511 413.355 510.489 414.103 510.446 414.846C510.416 415.606 510.289 416.358 510.069 417.085C510.651 416.51 511.05 415.776 511.216 414.975C511.412 414.198 511.505 413.398 511.494 412.597C511.488 411.807 511.409 411.019 511.257 410.243C511.116 409.464 510.879 408.704 510.55 407.984V407.984Z" fill="#5E7C24"/>
<path d="M506.131 367.058C506.131 367.058 514.321 338.599 503.836 324.019C496.056 313.2 478.753 319.634 479.621 332.932C480.202 341.834 486.191 353.638 506.131 367.058Z" fill="#8B9D36"/>
<path d="M506.131 367.058C505.588 362.775 504.824 358.523 503.842 354.319C502.873 350.11 501.686 345.95 500.313 341.847C499.603 339.803 498.821 337.785 497.967 335.792C497.135 333.789 496.183 331.837 495.116 329.949C494.057 328.051 492.845 326.243 491.491 324.543C490.13 322.847 488.481 321.403 486.621 320.277C488.352 321.548 489.866 323.091 491.105 324.845C492.361 326.576 493.476 328.405 494.44 330.315C496.384 334.135 498.032 338.099 499.369 342.172C500.809 346.215 501.975 350.354 503.099 354.504C503.661 356.579 504.188 358.665 504.679 360.761C505.204 362.849 505.665 364.952 506.131 367.058Z" fill="#5E7C24"/>
<path d="M496.367 333.287C493.51 332.719 490.672 332.285 487.866 331.726C486.465 331.445 485.079 331.123 483.715 330.731C483.041 330.522 482.38 330.275 481.734 329.99C481.411 329.846 481.099 329.68 480.8 329.493C480.509 329.283 480.23 329.058 479.963 328.819C480.814 330.05 482.036 330.977 483.45 331.464C484.816 332.005 486.229 332.42 487.67 332.706C490.532 333.276 493.455 333.472 496.367 333.287V333.287ZM498.501 319.624C497.799 321.257 497.265 322.88 496.629 324.448C496.322 325.223 495.964 325.977 495.557 326.704C495.182 327.452 494.565 328.051 493.806 328.405C494.273 328.402 494.733 328.288 495.147 328.072C495.561 327.856 495.918 327.544 496.188 327.163C496.758 326.456 497.219 325.667 497.555 324.824C498.222 323.173 498.544 321.404 498.501 319.624V319.624ZM505.119 326.034C504.28 328.243 503.542 330.432 502.552 332.484C502.088 333.507 501.5 334.469 500.803 335.35C500.119 336.254 499.13 336.877 498.02 337.103C498.634 337.177 499.257 337.105 499.838 336.894C500.419 336.684 500.943 336.339 501.367 335.889C502.238 335.034 502.945 334.027 503.453 332.918C503.961 331.838 504.357 330.709 504.636 329.548C504.928 328.399 505.091 327.22 505.119 326.034V326.034ZM499.783 341.829C498.273 342.033 496.774 342.191 495.282 342.355C493.788 342.497 492.299 342.634 490.808 342.679C489.321 342.736 487.832 342.715 486.347 342.616C484.852 342.492 483.37 342.244 481.916 341.874C483.265 342.618 484.729 343.131 486.248 343.39C487.767 343.638 489.307 343.735 490.845 343.678C493.907 343.566 496.928 342.941 499.783 341.829ZM508.862 338.796C508.396 339.659 507.932 340.49 507.447 341.296C506.975 342.094 506.44 342.855 505.848 343.569C505.272 344.27 504.605 344.891 503.865 345.415C503.07 345.907 502.201 346.268 501.291 346.482C502.291 346.653 503.32 346.519 504.243 346.097C505.157 345.64 505.965 344.997 506.616 344.209C507.25 343.437 507.764 342.573 508.14 341.646C508.531 340.741 508.775 339.778 508.862 338.796V338.796ZM487.265 350.492C489.429 352.245 492.063 353.319 494.835 353.579C495.53 353.642 496.229 353.658 496.926 353.628C497.274 353.606 497.621 353.548 497.967 353.509C498.314 353.478 498.658 353.412 498.992 353.312C500.341 353.001 501.62 352.439 502.762 351.656C501.49 352.073 500.182 352.37 498.854 352.544C497.553 352.713 496.237 352.726 494.932 352.584C493.621 352.455 492.323 352.209 491.055 351.849C489.763 351.482 488.497 351.029 487.265 350.492ZM508.501 351.885C507.678 352.8 507.044 353.734 506.361 354.629C505.693 355.551 504.952 356.418 504.144 357.22C504.764 357.139 505.353 356.9 505.854 356.525C506.35 356.159 506.79 355.722 507.16 355.228C507.522 354.74 507.822 354.21 508.056 353.649C508.302 353.091 508.453 352.494 508.501 351.885V351.885ZM495.919 359.334C496.557 359.805 497.251 360.194 497.985 360.492C498.712 360.801 499.467 361.041 500.239 361.21C501.021 361.386 501.822 361.459 502.623 361.428C503.441 361.43 504.242 361.191 504.924 360.74C504.167 360.806 503.405 360.775 502.656 360.648C501.92 360.537 501.183 360.404 500.448 360.233C498.968 359.929 497.498 359.547 495.919 359.334Z" fill="#5E7C24"/>
<path d="M535.837 422.857V428.204C535.841 428.695 535.651 429.168 535.307 429.519C534.963 429.87 534.494 430.07 534.002 430.075H497.249C496.758 430.07 496.289 429.87 495.945 429.519C495.601 429.168 495.41 428.695 495.415 428.204V423.277C495.41 422.789 495.598 422.319 495.938 421.969C496.277 421.619 496.741 421.416 497.229 421.406L533.982 420.987C534.227 420.986 534.469 421.035 534.696 421.129C534.922 421.223 535.127 421.361 535.3 421.535C535.472 421.709 535.609 421.915 535.701 422.142C535.793 422.369 535.839 422.612 535.837 422.857V422.857Z" fill="#D6694B"/>
<path d="M534.082 430.075L532.775 457.669H499.341L497.169 430.075H534.082Z" fill="#E19974"/>
<path d="M176.437 219.734V457.669H122.644V219.734C122.644 219.049 122.916 218.393 123.401 217.909C123.885 217.425 124.541 217.153 125.226 217.153H173.856C174.54 217.153 175.197 217.425 175.681 217.909C176.165 218.393 176.437 219.049 176.437 219.734V219.734Z" fill="#935B50"/>
<path d="M128.194 260.439H170.887C172.312 260.439 173.468 261.595 173.468 263.02V293.401C173.468 294.826 172.312 295.982 170.887 295.982H128.194C126.769 295.982 125.613 294.826 125.613 293.401V263.02C125.613 261.595 126.769 260.439 128.194 260.439Z" fill="#E19974"/>
<path d="M128.194 221.024H170.887C172.312 221.024 173.468 222.18 173.468 223.605V253.986C173.468 255.411 172.312 256.567 170.887 256.567H128.194C126.769 256.567 125.613 255.411 125.613 253.986V223.605C125.613 222.18 126.769 221.024 128.194 221.024Z" fill="#E19974"/>
<path d="M128.653 252.056C128.495 252.202 128.368 252.378 128.279 252.574C128.191 252.77 128.143 252.982 128.139 253.197C128.135 253.411 128.174 253.625 128.254 253.824C128.334 254.024 128.454 254.205 128.606 254.357C128.758 254.509 128.939 254.628 129.138 254.709C129.338 254.789 129.551 254.828 129.766 254.823C129.981 254.819 130.192 254.771 130.388 254.683C130.584 254.595 130.76 254.468 130.906 254.31C130.703 254.021 130.515 253.721 130.345 253.412C130.259 253.241 130.15 253.083 130.02 252.943C129.777 252.697 129.464 252.624 128.653 252.056ZM130.906 223.282C130.76 223.124 130.584 222.997 130.388 222.909C130.192 222.821 129.981 222.773 129.766 222.768C129.551 222.764 129.338 222.803 129.138 222.883C128.939 222.963 128.758 223.083 128.606 223.235C128.454 223.387 128.334 223.568 128.254 223.767C128.174 223.967 128.135 224.18 128.139 224.395C128.143 224.61 128.191 224.822 128.279 225.018C128.368 225.214 128.495 225.39 128.653 225.535C128.941 225.332 129.241 225.145 129.551 224.974C129.722 224.889 129.879 224.779 130.02 224.649C130.266 224.407 130.338 224.093 130.906 223.282ZM170.428 225.535C170.586 225.39 170.713 225.214 170.802 225.018C170.89 224.822 170.938 224.61 170.942 224.395C170.947 224.18 170.908 223.967 170.827 223.768C170.747 223.568 170.627 223.387 170.475 223.235C170.324 223.083 170.142 222.964 169.943 222.883C169.744 222.803 169.53 222.764 169.315 222.768C169.101 222.773 168.889 222.821 168.693 222.909C168.497 222.997 168.321 223.124 168.175 223.282C168.379 223.571 168.566 223.871 168.736 224.18C168.822 224.351 168.931 224.509 169.061 224.649C169.304 224.895 169.617 224.967 170.428 225.535ZM168.175 254.31C168.321 254.468 168.497 254.595 168.693 254.683C168.889 254.771 169.101 254.819 169.315 254.823C169.53 254.828 169.744 254.789 169.943 254.708C170.142 254.628 170.324 254.509 170.475 254.357C170.627 254.205 170.747 254.024 170.827 253.824C170.908 253.625 170.947 253.411 170.942 253.197C170.938 252.982 170.89 252.77 170.802 252.574C170.713 252.378 170.586 252.202 170.428 252.056C170.14 252.26 169.84 252.447 169.53 252.617C169.36 252.703 169.202 252.813 169.061 252.943C168.816 253.185 168.743 253.499 168.175 254.31ZM128.653 291.471C128.495 291.617 128.368 291.793 128.279 291.989C128.191 292.185 128.143 292.397 128.139 292.611C128.135 292.826 128.174 293.04 128.254 293.239C128.334 293.438 128.454 293.62 128.606 293.771C128.758 293.923 128.939 294.043 129.138 294.123C129.338 294.204 129.551 294.243 129.766 294.238C129.981 294.234 130.192 294.186 130.388 294.098C130.584 294.01 130.76 293.883 130.906 293.725C130.703 293.436 130.515 293.136 130.345 292.827C130.259 292.656 130.15 292.498 130.02 292.358C129.777 292.112 129.464 292.039 128.653 291.471ZM130.906 262.697C130.76 262.539 130.584 262.412 130.388 262.324C130.192 262.235 129.981 262.188 129.766 262.183C129.551 262.179 129.337 262.218 129.138 262.298C128.939 262.378 128.758 262.498 128.606 262.65C128.454 262.802 128.334 262.983 128.254 263.182C128.174 263.382 128.135 263.595 128.139 263.81C128.143 264.025 128.191 264.237 128.279 264.433C128.368 264.629 128.495 264.805 128.653 264.95C128.941 264.747 129.241 264.559 129.551 264.389C129.722 264.303 129.879 264.194 130.02 264.064C130.266 263.822 130.338 263.508 130.906 262.697ZM170.428 264.95C170.586 264.805 170.713 264.629 170.802 264.433C170.89 264.237 170.938 264.025 170.942 263.81C170.947 263.595 170.908 263.382 170.827 263.182C170.747 262.983 170.628 262.802 170.476 262.65C170.324 262.498 170.143 262.378 169.943 262.298C169.744 262.218 169.53 262.179 169.315 262.183C169.101 262.188 168.889 262.235 168.693 262.324C168.497 262.412 168.321 262.539 168.175 262.697C168.379 262.986 168.566 263.285 168.736 263.595C168.822 263.766 168.932 263.924 169.061 264.064C169.304 264.31 169.617 264.382 170.428 264.95ZM168.175 293.725C168.321 293.883 168.497 294.01 168.693 294.098C168.889 294.186 169.101 294.234 169.315 294.238C169.53 294.243 169.744 294.203 169.943 294.123C170.142 294.043 170.324 293.923 170.475 293.771C170.627 293.62 170.747 293.438 170.827 293.239C170.908 293.04 170.947 292.826 170.942 292.611C170.938 292.396 170.89 292.185 170.802 291.989C170.713 291.793 170.586 291.617 170.428 291.471C170.14 291.675 169.84 291.862 169.53 292.032C169.359 292.118 169.202 292.228 169.061 292.358C168.816 292.6 168.743 292.914 168.175 293.725Z" fill="#D6694B"/>
<path d="M128.194 299.854H170.887C172.312 299.854 173.468 301.01 173.468 302.435V332.816C173.468 334.241 172.312 335.397 170.887 335.397H128.194C126.769 335.397 125.613 334.241 125.613 332.816V302.435C125.613 301.01 126.769 299.854 128.194 299.854Z" fill="#E19974"/>
<path d="M128.194 339.269H170.887C172.312 339.269 173.468 340.425 173.468 341.85V372.231C173.468 373.656 172.312 374.812 170.887 374.812H128.194C126.769 374.812 125.613 373.656 125.613 372.231V341.85C125.613 340.425 126.769 339.269 128.194 339.269Z" fill="#E19974"/>
<path d="M128.194 378.684H170.887C172.312 378.684 173.468 379.84 173.468 381.265V411.646C173.468 413.071 172.312 414.227 170.887 414.227H128.194C126.769 414.227 125.613 413.071 125.613 411.646V381.265C125.613 379.84 126.769 378.684 128.194 378.684Z" fill="#E19974"/>
<path d="M128.194 418.099H170.887C172.312 418.099 173.468 419.255 173.468 420.68V451.061C173.468 452.486 172.312 453.642 170.887 453.642H128.194C126.769 453.642 125.613 452.486 125.613 451.061V420.68C125.613 419.255 126.769 418.099 128.194 418.099Z" fill="#E19974"/>
<path d="M143.184 233.956H155.897C156.449 233.956 156.897 234.404 156.897 234.956V238.377C156.897 238.929 156.449 239.377 155.897 239.377H143.184C142.632 239.377 142.184 238.929 142.184 238.377V234.956C142.184 234.404 142.632 233.956 143.184 233.956Z" fill="#D6694B"/>
<path d="M143.184 312.786H155.897C156.449 312.786 156.897 313.234 156.897 313.786V317.207C156.897 317.759 156.449 318.207 155.897 318.207H143.184C142.632 318.207 142.184 317.759 142.184 317.207V313.786C142.184 313.234 142.632 312.786 143.184 312.786Z" fill="#D6694B"/>
<path d="M143.184 352.201H155.897C156.449 352.201 156.897 352.649 156.897 353.201V356.622C156.897 357.174 156.449 357.622 155.897 357.622H143.184C142.632 357.622 142.184 357.174 142.184 356.622V353.201C142.184 352.649 142.632 352.201 143.184 352.201Z" fill="#D6694B"/>
<path d="M143.184 431.031H155.897C156.449 431.031 156.897 431.479 156.897 432.031V435.452C156.897 436.004 156.449 436.452 155.897 436.452H143.184C142.632 436.452 142.184 436.004 142.184 435.452V432.031C142.184 431.479 142.632 431.031 143.184 431.031Z" fill="#D6694B"/>
<path d="M143.184 391.616H155.897C156.449 391.616 156.897 392.064 156.897 392.616V396.037C156.897 396.589 156.449 397.037 155.897 397.037H143.184C142.632 397.037 142.184 396.589 142.184 396.037V392.616C142.184 392.064 142.632 391.616 143.184 391.616Z" fill="#D6694B"/>
<path d="M143.184 273.371H155.897C156.449 273.371 156.897 273.819 156.897 274.371V277.792C156.897 278.344 156.449 278.792 155.897 278.792H143.184C142.632 278.792 142.184 278.344 142.184 277.792V274.371C142.184 273.819 142.632 273.371 143.184 273.371Z" fill="#D6694B"/>
<path d="M128.653 330.886C128.495 331.032 128.368 331.208 128.279 331.404C128.191 331.6 128.143 331.811 128.139 332.026C128.135 332.241 128.174 332.455 128.254 332.654C128.334 332.853 128.454 333.035 128.606 333.186C128.758 333.338 128.939 333.458 129.138 333.538C129.338 333.618 129.551 333.658 129.766 333.653C129.981 333.649 130.192 333.601 130.388 333.513C130.584 333.424 130.76 333.297 130.906 333.139C130.703 332.851 130.515 332.551 130.345 332.241C130.259 332.071 130.15 331.913 130.02 331.773C129.777 331.527 129.464 331.454 128.653 330.886ZM130.906 302.112C130.76 301.954 130.584 301.827 130.388 301.739C130.192 301.65 129.981 301.602 129.766 301.598C129.551 301.594 129.338 301.633 129.138 301.713C128.939 301.793 128.758 301.913 128.606 302.065C128.454 302.217 128.334 302.398 128.254 302.597C128.174 302.797 128.135 303.01 128.139 303.225C128.143 303.44 128.191 303.652 128.279 303.847C128.368 304.043 128.495 304.219 128.653 304.365C128.941 304.162 129.241 303.974 129.551 303.804C129.722 303.718 129.879 303.609 130.02 303.479C130.266 303.237 130.338 302.923 130.906 302.112ZM170.428 304.365C170.586 304.219 170.713 304.043 170.802 303.847C170.89 303.652 170.938 303.44 170.942 303.225C170.947 303.01 170.908 302.797 170.827 302.597C170.747 302.398 170.627 302.217 170.475 302.065C170.324 301.913 170.142 301.793 169.943 301.713C169.744 301.633 169.53 301.594 169.315 301.598C169.101 301.602 168.889 301.65 168.693 301.739C168.497 301.827 168.321 301.954 168.175 302.112C168.379 302.4 168.566 302.7 168.736 303.01C168.822 303.181 168.932 303.338 169.061 303.479C169.304 303.725 169.617 303.797 170.428 304.365ZM168.175 333.139C168.321 333.297 168.497 333.424 168.693 333.513C168.889 333.601 169.101 333.649 169.315 333.653C169.53 333.657 169.744 333.618 169.943 333.538C170.142 333.458 170.323 333.338 170.475 333.186C170.627 333.034 170.747 332.853 170.827 332.654C170.907 332.455 170.946 332.241 170.942 332.026C170.938 331.811 170.89 331.6 170.802 331.404C170.713 331.208 170.586 331.032 170.428 330.886C170.14 331.09 169.84 331.277 169.53 331.447C169.36 331.533 169.202 331.643 169.061 331.773C168.816 332.015 168.743 332.328 168.175 333.139ZM128.653 370.301C128.495 370.447 128.368 370.623 128.279 370.819C128.191 371.015 128.143 371.226 128.139 371.441C128.135 371.656 128.174 371.87 128.254 372.069C128.334 372.268 128.454 372.449 128.606 372.601C128.758 372.753 128.939 372.873 129.138 372.953C129.338 373.033 129.551 373.072 129.766 373.068C129.981 373.064 130.192 373.016 130.388 372.928C130.584 372.839 130.76 372.712 130.906 372.554C130.703 372.266 130.515 371.966 130.345 371.656C130.259 371.485 130.15 371.328 130.02 371.187C129.777 370.941 129.464 370.869 128.653 370.301ZM130.906 341.527C130.76 341.369 130.584 341.242 130.388 341.153C130.192 341.065 129.981 341.017 129.766 341.013C129.551 341.009 129.338 341.048 129.138 341.128C128.939 341.208 128.758 341.328 128.606 341.48C128.454 341.632 128.334 341.813 128.254 342.012C128.174 342.211 128.135 342.425 128.139 342.64C128.143 342.855 128.191 343.066 128.279 343.262C128.368 343.458 128.495 343.634 128.653 343.78C128.941 343.576 129.241 343.389 129.551 343.219C129.722 343.133 129.879 343.024 130.02 342.894C130.266 342.651 130.338 342.338 130.906 341.527ZM170.428 343.78C170.586 343.634 170.713 343.458 170.802 343.262C170.89 343.067 170.938 342.855 170.942 342.64C170.947 342.425 170.908 342.212 170.827 342.012C170.747 341.813 170.627 341.632 170.475 341.48C170.324 341.328 170.142 341.208 169.943 341.128C169.744 341.048 169.53 341.009 169.315 341.013C169.101 341.017 168.889 341.065 168.693 341.153C168.497 341.242 168.321 341.369 168.175 341.527C168.379 341.815 168.566 342.115 168.736 342.425C168.822 342.595 168.931 342.753 169.061 342.894C169.304 343.14 169.617 343.212 170.428 343.78ZM168.175 372.554C168.321 372.712 168.497 372.839 168.693 372.928C168.889 373.016 169.101 373.064 169.315 373.068C169.53 373.072 169.744 373.033 169.943 372.953C170.142 372.873 170.324 372.753 170.475 372.601C170.627 372.449 170.747 372.268 170.827 372.069C170.908 371.87 170.947 371.656 170.942 371.441C170.938 371.226 170.89 371.015 170.802 370.819C170.713 370.623 170.586 370.447 170.428 370.301C170.14 370.505 169.84 370.692 169.53 370.862C169.36 370.948 169.202 371.057 169.061 371.187C168.816 371.43 168.743 371.743 168.175 372.554ZM128.653 449.131C128.495 449.276 128.368 449.453 128.279 449.648C128.191 449.844 128.143 450.056 128.139 450.271C128.135 450.486 128.174 450.699 128.254 450.899C128.334 451.098 128.454 451.279 128.606 451.431C128.758 451.583 128.939 451.703 129.138 451.783C129.338 451.863 129.551 451.902 129.766 451.898C129.981 451.893 130.192 451.846 130.388 451.757C130.584 451.669 130.76 451.542 130.906 451.384C130.703 451.095 130.515 450.796 130.345 450.486C130.259 450.315 130.15 450.157 130.02 450.017C129.777 449.771 129.464 449.699 128.653 449.131ZM130.906 420.356C130.76 420.198 130.584 420.071 130.388 419.983C130.192 419.895 129.981 419.847 129.766 419.843C129.551 419.838 129.338 419.877 129.138 419.958C128.939 420.038 128.758 420.158 128.606 420.309C128.454 420.461 128.334 420.642 128.254 420.842C128.174 421.041 128.135 421.255 128.139 421.47C128.143 421.684 128.191 421.896 128.279 422.092C128.368 422.288 128.495 422.464 128.653 422.61C128.941 422.406 129.241 422.219 129.551 422.049C129.722 421.963 129.879 421.853 130.02 421.723C130.266 421.481 130.338 421.167 130.906 420.356ZM170.428 422.61C170.586 422.464 170.713 422.288 170.802 422.092C170.89 421.896 170.938 421.684 170.942 421.47C170.947 421.255 170.908 421.041 170.827 420.842C170.747 420.643 170.627 420.461 170.475 420.309C170.324 420.158 170.142 420.038 169.943 419.958C169.744 419.877 169.53 419.838 169.315 419.843C169.101 419.847 168.889 419.895 168.693 419.983C168.497 420.071 168.321 420.198 168.175 420.356C168.379 420.645 168.566 420.945 168.736 421.254C168.822 421.425 168.932 421.583 169.061 421.723C169.304 421.969 169.617 422.042 170.428 422.61ZM168.175 451.384C168.321 451.542 168.497 451.669 168.693 451.757C168.889 451.846 169.101 451.893 169.315 451.898C169.53 451.902 169.744 451.863 169.943 451.783C170.142 451.703 170.323 451.583 170.475 451.431C170.627 451.279 170.747 451.098 170.827 450.899C170.907 450.699 170.946 450.486 170.942 450.271C170.938 450.056 170.89 449.844 170.802 449.648C170.713 449.452 170.586 449.276 170.428 449.131C170.14 449.334 169.84 449.522 169.53 449.692C169.36 449.778 169.202 449.887 169.061 450.017C168.816 450.259 168.743 450.573 168.175 451.384ZM128.653 409.716C128.495 409.862 128.368 410.038 128.279 410.234C128.191 410.429 128.143 410.641 128.139 410.856C128.135 411.071 128.174 411.284 128.254 411.484C128.334 411.683 128.454 411.864 128.606 412.016C128.758 412.168 128.939 412.288 129.138 412.368C129.338 412.448 129.551 412.487 129.766 412.483C129.981 412.478 130.192 412.431 130.388 412.342C130.584 412.254 130.76 412.127 130.906 411.969C130.703 411.68 130.515 411.381 130.345 411.071C130.259 410.9 130.15 410.742 130.02 410.602C129.777 410.356 129.464 410.284 128.653 409.716ZM130.906 380.942C130.76 380.784 130.584 380.657 130.388 380.568C130.192 380.48 129.981 380.432 129.766 380.428C129.551 380.423 129.337 380.463 129.138 380.543C128.939 380.623 128.758 380.743 128.606 380.895C128.454 381.047 128.334 381.228 128.254 381.427C128.174 381.626 128.135 381.84 128.139 382.055C128.143 382.27 128.191 382.481 128.279 382.677C128.368 382.873 128.495 383.049 128.653 383.195C128.941 382.991 129.241 382.804 129.551 382.634C129.722 382.548 129.879 382.438 130.02 382.308C130.266 382.066 130.338 381.752 130.906 380.942ZM170.428 383.195C170.586 383.049 170.713 382.873 170.802 382.677C170.89 382.481 170.938 382.27 170.942 382.055C170.947 381.84 170.908 381.626 170.827 381.427C170.747 381.228 170.628 381.047 170.476 380.895C170.324 380.743 170.143 380.623 169.943 380.543C169.744 380.463 169.53 380.424 169.315 380.428C169.101 380.432 168.889 380.48 168.693 380.568C168.497 380.657 168.321 380.784 168.175 380.942C168.379 381.23 168.566 381.53 168.736 381.84C168.822 382.01 168.932 382.168 169.061 382.308C169.304 382.555 169.617 382.627 170.428 383.195ZM168.175 411.969C168.321 412.127 168.497 412.254 168.693 412.342C168.889 412.431 169.101 412.478 169.315 412.483C169.53 412.487 169.744 412.448 169.943 412.368C170.143 412.288 170.324 412.168 170.476 412.016C170.628 411.864 170.747 411.683 170.827 411.484C170.908 411.284 170.947 411.071 170.942 410.856C170.938 410.641 170.89 410.429 170.802 410.233C170.713 410.038 170.586 409.861 170.428 409.716C170.14 409.919 169.84 410.107 169.53 410.277C169.359 410.363 169.202 410.472 169.061 410.602C168.816 410.844 168.743 411.158 168.175 411.969Z" fill="#D6694B"/>
<path d="M335.941 458.818C339.227 456.623 339.675 452.246 336.975 448.882L325.617 434.729C325.407 434.49 325.13 434.322 324.822 434.246C324.513 434.17 324.189 434.19 323.893 434.303L315.806 437.805C315.494 437.924 315.152 437.94 314.83 437.849C314.508 437.759 314.224 437.567 314.019 437.303L309.303 431.232C309.172 431.04 308.996 430.885 308.791 430.778C308.585 430.671 308.357 430.616 308.125 430.618C307.894 430.621 307.666 430.68 307.463 430.791C307.26 430.902 307.087 431.062 306.96 431.256L302.171 441.467C302.053 441.789 302.067 442.144 302.209 442.455C302.351 442.767 302.61 443.01 302.93 443.132L335.931 458.824L335.941 458.818ZM413.95 451.181C415.785 447.498 413.669 443.513 409.163 442.125L390.211 436.284C389.875 436.195 389.52 436.203 389.188 436.306C388.856 436.41 388.559 436.605 388.333 436.869L382.717 444.31C382.479 444.587 382.163 444.788 381.81 444.887C381.458 444.986 381.084 444.978 380.736 444.864L372.753 442.272C371.67 441.921 370.437 442.654 370.551 443.582L371.946 454.94C372.041 455.293 372.27 455.596 372.584 455.783C372.898 455.971 373.273 456.029 373.63 455.945L413.944 451.192L413.95 451.181Z" fill="#6C7FD8"/>
<path d="M100 457.669H600V459.669H100V457.669Z" fill="#935B50"/>
</svg>
