<svg xmlns="http://www.w3.org/2000/svg" data-name="Layer 1" viewBox="0 0 512 512"><path fill="#fed44a" d="M107.006,30.55V47.91014h370.3999V30.55a4,4,0,0,0-4-4H111.006A4,4,0,0,0,107.006,30.55Z"/><path fill="#2ca68f" d="M119.426,245.99135s-9,13.32-2.88,33.12c0,0-9,60.48-13.32,73.44s-29.28,83.52-29.28,83.52l45.48,12,30.42-101.04-2.94,101.04h46.32s1.2-152.34173-10.32-184.65087l-11.20453-12.49937-1.63492,1.55024-5.9006-6.48Z"/><path d="M157.946,128.81135s15.3.54,11.52,9.18-13.68,3.06-13.68,3.06,1.98,15.12-6.3,8.82-5.94,9.36,1.44,8.64c0,0,7.02,14.76,1.98,20.16s-12.42.72-14.22-4.86c0,0-10.44,2.88-10.8-9s-4.5-13.14,1.44-17.46S139.586,122.51135,157.946,128.81135Z"/><path d="M166.82031,179.8916c-4.43261,0-12.28271-3.57226-12.61474-3.72363a.50036.50036,0,0,1,.416-.91016c.07959.03711,7.98438,3.63379,12.19873,3.63379.52686,0,.65235-.09961.65332-.10058-.0249-.584-2.895-2.92383-6.312-5.05762-3.04-.91309-1.604-6.81055-1.54053-7.06348a.49809.49809,0,0,1,.46192-.37793c5.55224-.25488,9.41894-2.12988,11.49316-5.57422,5.09424-8.458-2.02637-23.77246-2.09863-23.92578a.50018.50018,0,0,1,.9043-.42773c.30566.64746,7.42138,15.95019,2.05175,24.86816-2.20849,3.668-6.21923,5.69824-11.9248,6.03809-.35156,1.665-.70264,5.06738.98633,5.51758a.52052.52052,0,0,1,.13525.05859c2.71631,1.69141,7.209,4.75488,6.77637,6.26758C168.18457,179.8916,167.15771,179.8916,166.82031,179.8916Z"/><path d="M170.06641,252.97168h-.01856a.50179.50179,0,0,1-.35107-.16309l-5.752-6.31738H113.30615a.49969.49969,0,0,1-.49072-.5957c8.20361-42.08789,26.165-70.09473,26.34521-70.37305a.50016.50016,0,0,1,.83887.54492c-.17871.27539-17.86914,27.87012-26.08545,69.42383h50.252a.50168.50168,0,0,1,.36962.16309l5.55713,6.10351,22.4419-21.27929-13.90625-16.01758a.50064.50064,0,0,1-.07813-.53418c.03321-.07324,3.27881-7.40332.37744-12.69531-3.01709-5.502-10.88427-17.88086-10.96337-18.00489a.50061.50061,0,0,1,.33886-.76172l18.08692-3.04394-23.53467-4.623a.49958.49958,0,1,1,.19238-.98047l26.22559,5.15137a.4998.4998,0,0,1-.01319.9834l-20.04882,3.374c1.65576,2.61621,7.957,12.61719,10.59326,17.42481,2.83252,5.166.39843,11.79687-.21631,13.29l14.01514,16.14257a.501.501,0,0,1-.03321.69141l-23.15967,21.96A.50172.50172,0,0,1,170.06641,252.97168Z"/><path d="M164.1665 246.49121a.49852.49852 0 01-.41406-.21875 164.3753 164.3753 0 01-9.78906-16.44336c-4.14014-8.5498-4.59961-31.28515-4.61719-32.249a.50032.50032 0 01.49072-.50879h.00928a.5001.5001 0 01.5.49121c.0044.2334.47266 23.47754 4.51758 31.83105A163.10456 163.10456 0 00164.57959 245.71a.5004.5004 0 01-.41309.78125zM179.00635 214.63281a.50021.50021 0 01-.44922-.27929L168.47705 193.832a.50007.50007 0 11.89746-.44141l10.08008 20.52149a.49957.49957 0 01-.44824.7207zM168.92578 246.49121a.49975.49975 0 01-.35547-.85156l18.36035-18.54a.5.5 0 11.71094.70312l-18.36035 18.54A.49993.49993 0 01168.92578 246.49121z"/><polygon points="149.846 347.034 144.266 291.714 143.197 369.118 149.846 347.034"/><path d="M200.52441,287.669c-1.84961,0-3.80908-.93555-5.83593-2.78809a30.41412,30.41412,0,0,1-8.96973-15.19727c-.51123-2.21484-3.19092-5.93164-3.21777-5.96972a.49968.49968,0,1,1,.80957-.58594c.11523.1582,2.82617,3.91992,3.38281,6.33105a29.38674,29.38674,0,0,0,8.66992,14.6836c2.05664,1.87988,3.98926,2.7207,5.73145,2.48926a4.93823,4.93823,0,0,0,3.22949-2.0293.50362.50362,0,0,1,.57715-.207c2.87109.93652,5.127.89355,6.70508-.13379a5.31364,5.31364,0,0,0,2.18212-3.58106.5.5,0,0,1,.7627-.373c1.95215,1.21972,3.59326,1.53906,4.87939.94531,2.26026-1.041,2.81543-4.58008,2.8208-4.61523a.50084.50084,0,0,1,.34766-.4043c2.65137-.81641,4.02539-2.24414,4.20117-4.36524.72705-8.77929-18.48437-25.333-21.07812-26.62988-3.39063-1.69531-14.17822-12.22461-14.63574-12.67187a.5.5,0,1,1,.69921-.71485c.11084.1084,11.13184,10.86621,14.38379,12.49219,2.7583,1.37988,22.4043,18.22656,21.62745,27.60645-.20362,2.458-1.75489,4.1875-4.6128,5.1455-.20166.9834-.99512,3.98535-3.33105,5.06446-1.46387.6748-3.21582.46-5.21485-.64161a6.10049,6.10049,0,0,1-2.48681,3.582c-1.77539,1.15527-4.20166,1.27343-7.21387.35546a5.8193,5.8193,0,0,1-3.69775,2.165A5.291,5.291,0,0,1,200.52441,287.669Z"/><path d="M222.74658 277.21094a.50113.50113 0 01-.42236-.23145l-6.84033-10.73926a.5001.5001 0 11.84375-.53711l6.84033 10.73926a.5.5 0 01-.42139.76856zM214.28662 281.23145a.49971.49971 0 01-.41211-.21583l-6.48-9.38964a.50019.50019 0 01.82324-.56836l6.48 9.38965a.4999.4999 0 01-.12744.69531A.49431.49431 0 01214.28662 281.23145zM204.74658 285.37109a.49893.49893 0 01-.41308-.21777l-4.68018-6.83984a.49989.49989 0 11.8252-.56446l4.68017 6.83985a.49958.49958 0 01-.41211.78222zM148.88672 279.31836c-1.84815 0-3.9336-.16016-5.87305-.30957a37.48505 37.48505 0 00-5.65039-.19922 71.76671 71.76671 0 01-9.207.00195.49969.49969 0 01-.46924-.52929.507.507 0 01.52881-.46875 71.78062 71.78062 0 009.0332.00195 38.1199 38.1199 0 015.84082.19629c3.35254.25781 7.15088.54687 9.20215-.02051a.49969.49969 0 11.26758.96289A14.48433 14.48433 0 01148.88672 279.31836z"/><path fill="#fed44a" d="M149.846 448.07135v30.03a4.59 4.59 0 004.59 4.59h69.21V480.0863a5.34394 5.34394 0 00-2.76241-4.679L192.326 459.65135v-11.58zM116.25967 453.92335l1.98364-6.16406-41.13281-10.853-6.94043 21.5669a4.59021 4.59021 0 002.96338 5.77539L139.016 485.45l.79809-2.47974a5.3441 5.3441 0 00-1.19629-5.30029z"/><path d="M168.23193 155.27832a5.6732 5.6732 0 01-2.35547-.64258.5001.5001 0 11.459-.88867c.64795.335 2.0459.83105 2.69385.29688.4917-.40137.41455-1.40821.29785-2.93457a20.88655 20.88655 0 00-.8208-4.2168c-.14112-.47656-.273-.875-.38526-1.21192-.35107-1.05957-.563-1.69824-.15332-2.32324.43311-.66113 1.32618-.92676 2.73633-.82519a.50065.50065 0 01.46045.53711.495.495 0 01-.53662.46093c-1.30664-.10742-1.7041.19239-1.82373.375-.13916.21289-.02637.57911.26611 1.46.11475.34668.25.75489.395 1.24415a21.85643 21.85643 0 01.85889 4.42382c.14062 1.83887.23389 3.05469-.66211 3.78614A2.21463 2.21463 0 01168.23193 155.27832zM164.81592 159.41016a3.47683 3.47683 0 01-2.18457-.68067 3.85685 3.85685 0 01-1.34473-2.72168.49967.49967 0 01.48145-.51562.51053.51053 0 01.51757.48144 2.87914 2.87914 0 00.9629 1.96875 3.22615 3.22615 0 002.74609.32129.49986.49986 0 01.22266.97461A6.31711 6.31711 0 01164.81592 159.41016zM159.83594 146.05078a.5.5 0 01-.38721-.81543c.02295-.02832 2.31006-2.751 6.19531-.75976a.5003.5003 0 01-.456.89062c-3.14551-1.61426-4.894.416-4.96631.50391A.50081.50081 0 01159.83594 146.05078z"/><ellipse cx="164.066" cy="149.016" rx=".9" ry="1.305" transform="rotate(-9.553 164.066 149.016)"/><ellipse cx="171.309" cy="147.261" rx=".9" ry="1.305" transform="rotate(-9.553 171.309 147.261)"/><path d="M224.12988,194.1123a2.996,2.996,0,0,1-.69287-.084,6.5268,6.5268,0,0,1-2.00342-.85449,4.56082,4.56082,0,0,1-1.92041-2.88086,6.80343,6.80343,0,0,1-2.03369,1.75976,3.52715,3.52715,0,0,1-1.33789.38086c-.11767.01661-.23437.03223-.34863.05274a2.13175,2.13175,0,0,1-2.11572-.44922,7.73658,7.73658,0,0,1-1.28663-1.25488,6.87172,6.87172,0,0,1-1.03124-3.60059,35.38207,35.38207,0,0,1,.35351-8.75684c.0166-.0957.04541-.23144.08106-.3955.37744-1.74219.26367-2.166.1621-2.26368-.28027.0254-1.748.30274-3.043.54688a32.52947,32.52947,0,0,1-3.36329.56055l-.00048.00195-.05713-.001a1.00833,1.00833,0,0,1-.17725-.01269q-.44678-.0249-.87842-.04492a13.92238,13.92238,0,0,1-6.02539-1.2168l-.40332-.20606a23.30161,23.30161,0,0,1-3.03515-1.74121c-1.52588-1.09375-3.0752-3.51172-1.74073-5.46191,1.62305-2.37109,4.6543-1.543,6.66016-.99316l.61816.1748a12.37609,12.37609,0,0,0,1.95362.45313,24.7426,24.7426,0,0,0,2.72509.167c.24219.00293.5.01269.76807.02343,1.2959.05176,2.76856.10938,3.65772-.5791a12.49243,12.49243,0,0,0,1.20214-1.11132l.41016-.40918a13.71041,13.71041,0,0,1,2.36426-1.8418l.38818-.24707c1.31787-.84766,3.12256-2.00391,4.78809-1.25488a6.14995,6.14995,0,0,1,.83887.50488c.86865.582,1.33154.80859,1.61328.51562a2.74253,2.74253,0,0,0,.43506-.71191,5.76863,5.76863,0,0,1,.28466-.53809,4.816,4.816,0,0,1,1.39942-1.39355,4.34014,4.34014,0,0,1,3.85742-.40527,4.872,4.872,0,0,1,1.03516.6582c.42724.32031,1.21923.91113,1.46972.73926a1.29167,1.29167,0,0,0,.18457-.3086,2.69142,2.69142,0,0,1,.19873-.35351,5.05194,5.05194,0,0,1,.54-.61621c.0957-.09668.19092-.19336.28028-.29493l.12939-.14941a3.14619,3.14619,0,0,1,1.66455-1.20605l.15234-.03516a3.6306,3.6306,0,0,1,2.11817-.06055,5.75371,5.75371,0,0,1,1.69238,1.084,3.938,3.938,0,0,1,.6333.78711c.11719.1748.335.5.43164.52441-.00049,0,.062-.00293.20362-.11621l.22558-.18164a4.27436,4.27436,0,0,1,3.12744-1.34668,4.71123,4.71123,0,0,1,3.64551,2.52246c.603,1.21094,3.20606,9.18848,3.1294,12.08789-.0459,1.73145-1.39893,10.65039-2.231,12.16406a2.60684,2.60684,0,0,1-2.07959,1.61817c-1.37647.08886-2.603-1.46582-3.2832-2.44825-.04444.14454-.0835.29395-.11426.41211a4.63256,4.63256,0,0,1-.2378.74512,14.11975,14.11975,0,0,1-1.09033,2.05274,8.69686,8.69686,0,0,1-3.0415,2.44726,4.28947,4.28947,0,0,1-4.12744.31348,3.91562,3.91562,0,0,1-1.71924-1.78223,6.97107,6.97107,0,0,1-1.37207,2.00684,7.85111,7.85111,0,0,1-3.03223,1.93261A4.57807,4.57807,0,0,1,224.12988,194.1123Zm-4.353-5.748a.45824.45824,0,0,1,.08105.00683.49872.49872,0,0,1,.4165.44434c.16944,1.74414.72461,2.89453,1.69727,3.5166a5.57423,5.57423,0,0,0,1.69385.72363,2.78349,2.78349,0,0,0,1.72412-.25488,6.91821,6.91821,0,0,0,2.668-1.7041,8.05849,8.05849,0,0,0,1.80029-3.39258l.00928-.0293a.5.5,0,0,1,.95361.30079l-.00684.02246a2.76888,2.76888,0,0,0,1.46094,2.67871,3.35457,3.35457,0,0,0,3.25928-.30176,7.571,7.571,0,0,0,2.6665-2.12305,13.15971,13.15971,0,0,0,1.00244-1.89843,3.79022,3.79022,0,0,0,.1792-.582,2.50867,2.50867,0,0,1,.77344-1.50976.4988.4988,0,0,1,.68457.12012c.042.05859.10156.14746.17578.25878.39991.60254,1.60743,2.42188,2.65235,2.42188.01269,0,.0249,0,.03711-.001.43457-.01757.85351-.38867,1.2456-1.10156.63965-1.16308,2.05518-9.75488,2.10694-11.709.07177-2.70118-2.459-10.4795-3.02442-11.61524a3.70514,3.70514,0,0,0-2.86865-1.97558,3.52677,3.52677,0,0,0-2.37988,1.13086l-.231.18652a1.26856,1.26856,0,0,1-.98145.32324c-.52343-.08105-.83447-.54687-1.10888-.957A3.1503,3.1503,0,0,0,236,160.751a4.87673,4.87673,0,0,0-1.397-.9043,2.93024,2.93024,0,0,0-1.52491.10449l-.15673.03613a2.28435,2.28435,0,0,0-1.12989.88477l-.13476.15527c-.10254.11621-.21045.22657-.31934.33692a4.14825,4.14825,0,0,0-.436.49121,1.70973,1.70973,0,0,0-.11914.2207,1.71564,1.71564,0,0,1-.502.68067c-.84131.60058-1.84326-.15137-2.64746-.75391a4.623,4.623,0,0,0-.79394-.52539,3.3824,3.3824,0,0,0-2.92188.28808,3.84035,3.84035,0,0,0-1.12695,1.10254,4.88807,4.88807,0,0,0-.23535.44825,3.59377,3.59377,0,0,1-.61328.96875c-.915.95507-2.105.15136-2.89258-.37793a5.423,5.423,0,0,0-.69238-.42285c-1.1709-.5293-2.64893.41992-3.83643,1.18359l-.39746.25391a12.74116,12.74116,0,0,0-2.19678,1.709l-.39941.39941a13.49659,13.49659,0,0,1-1.29981,1.19727c-1.17627.90918-2.91357.8418-4.30859.78711-.25879-.00977-.5083-.01953-.7417-.02246a25.48552,25.48552,0,0,1-2.8335-.17481,12.99507,12.99507,0,0,1-2.11035-.48437l-.59521-.16895c-1.94873-.5332-4.35938-1.19336-5.58008.59082-.94287,1.37891.33691,3.252,1.49805,4.085a22.60231,22.60231,0,0,0,2.90576,1.66211l.40625.207a12.96276,12.96276,0,0,0,5.61816,1.1084c.36768.01758.74219.03614,1.12549.05957a.4256.4256,0,0,1,.07129.00977c.4956-.0752,1.89307-.33887,3.04541-.55664,1.74951-.33008,2.83105-.53223,3.09863-.55567a.99407.99407,0,0,1,.88135.33106c.55029.625.333,1.8916.06348,3.13574-.03125.14551-.05762.26563-.07178.35059a34.34467,34.34467,0,0,0-.34375,8.50195,6.04719,6.04719,0,0,0,.82617,3.07715,6.798,6.798,0,0,0,1.12207,1.08691c.48633.39258.61328.36817,1.314.24414.12646-.02246.25537-.041.38476-.05859a2.7183,2.7183,0,0,0,.9707-.25293,5.4471,5.4471,0,0,0,2.34766-2.53125A.5.5,0,0,1,219.77686,188.36426Z"/><path d="M220.96533 185.9668a.499.499 0 01-.47119-.667l.09229-.25976a14.27152 14.27152 0 00.86084-3.1543c.08349-.67969.1455-1.36426.20752-2.04883.07275-.80371.1455-1.60839.25244-2.40527a21.93976 21.93976 0 00.21728-4.18359 22.57922 22.57922 0 00-1.3042-5.50782c-.15527-.47753-.30761-.94628-.44677-1.40136a.5.5 0 11.95605-.293c.1377.45117.28809.91308.44141 1.38476a23.28775 23.28775 0 011.35156 5.76075 22.86329 22.86329 0 01-.22412 4.373c-.105.78321-.17627 1.57325-.24805 2.36328-.063.69434-.126 1.38965-.21094 2.08008a15.22484 15.22484 0 01-.91113 3.36719l-.0918.25879A.50027.50027 0 01220.96533 185.9668zM229.88232 185.64258a.492.492 0 01-.29589-.09766.49943.49943 0 01-.106-.69922 3.29494 3.29494 0 00.41015-1.05664c.03956-.14551.07813-.29.1211-.42773.06348-.2041.13086-.40723.19873-.61133a13.267 13.267 0 00.437-1.5127 21.95891 21.95891 0 00.33643-3.66308l.00879-.30078a28.21933 28.21933 0 00-.04395-3.582 54.9925 54.9925 0 00-1.28223-6.81641c-.17431-.75-.34668-1.49316-.50537-2.22461a.50023.50023 0 01.97754-.21289c.15772.72754.3291 1.4668.502 2.21191a55.68194 55.68194 0 011.30323 6.94239 29.05792 29.05792 0 01.04883 3.71093l-.00879.30079a22.95013 22.95013 0 01-.356 3.833 14.04236 14.04236 0 01-.46826 1.62793c-.06592.19922-.13135.39649-.19287.59375-.03955.126-.07471.25782-.11035.3916a4.08423 4.08423 0 01-.57129 1.38965A.49843.49843 0 01229.88232 185.64258zM239.82178 183.458a.4824.4824 0 01-.12793-.0166.4999.4999 0 01-.356-.61036 23.28819 23.28819 0 00.7251-7.98437 39.64608 39.64608 0 00-2.52393-9.68555l-.40967-1.16894a.49986.49986 0 11.94434-.32813l.40869 1.165a41.00714 41.00714 0 012.57666 9.92969 24.28208 24.28208 0 01-.75439 8.32617A.49978.49978 0 01239.82178 183.458zM222.74561 261.11133a.5.5 0 01-.08252-.99317l74.28125-12.50195a2.50311 2.50311 0 002.05078-2.87988L285.791 166.24316a2.502 2.502 0 00-2.88086-2.05078l-36.01123 6.0625a.5001.5001 0 11-.166-.98633l36.01123-6.0625a3.50649 3.50649 0 014.0332 2.8711l13.20411 78.49316a3.501 3.501 0 01-2.8711 4.03223L222.8291 261.10449A.48879.48879 0 01222.74561 261.11133zM168.38574 183.46094a.5.5 0 01-.08252-.99317l44.01953-7.40918a.5001.5001 0 11.166.98633l-44.01953 7.40918A.48983.48983 0 01168.38574 183.46094z"/><path d="M473.40625,207.21H293.10547a.5.5,0,0,1,0-1H473.40625a3.50424,3.50424,0,0,0,3.5-3.5V30.5498a3.50425,3.50425,0,0,0-3.5-3.5H111.00586a3.50425,3.50425,0,0,0-3.5,3.5V202.71a3.50424,3.50424,0,0,0,3.5,3.5h13.63037a.5.5,0,0,1,0,1H111.00586a4.50491,4.50491,0,0,1-4.5-4.5V30.5498a4.50492,4.50492,0,0,1,4.5-4.5H473.40625a4.50492,4.50492,0,0,1,4.5,4.5V202.71A4.50491,4.50491,0,0,1,473.40625,207.21Z"/><rect width="102.28" height="81.605" x="335.283" y="169.042" fill="#fed44a" rx="4"/><path d="M321.166 133.02148h-5a.5.5 0 010-1h5a.5.5 0 010 1zm-10 0h-5a.5.5 0 010-1h5a.5.5 0 010 1zm-10 0h-5a.5.5 0 010-1h5a.5.5 0 010 1zm-10 0h-5a.5.5 0 010-1h5a.5.5 0 010 1zm-10 0h-5a.5.5 0 010-1h5a.5.5 0 010 1zm-10 0h-5a.5.5 0 010-1h5a.5.5 0 010 1zm-10 0h-5a.5.5 0 010-1h5a.5.5 0 010 1zm-10 0h-5a.5.5 0 010-1h5a.5.5 0 010 1zm-10 0h-5a.5.5 0 010-1h5a.5.5 0 010 1zm-10 0h-5a.5.5 0 010-1h5a.5.5 0 010 1zm-10 0h-5a.5.5 0 010-1h5a.5.5 0 010 1zm-10 0h-5a.5.5 0 010-1h5a.5.5 0 010 1zm111.165-.17187a.50006.50006 0 01-.1455-.97852 3.494 3.494 0 002.47949-3.25879.50031.50031 0 01.5-.4873h.01269a.49988.49988 0 01.48731.5127 4.49327 4.49327 0 01-3.18848 4.19042A.50508.50508 0 01322.33105 132.84961zM201.188 132.81934a.4928.4928 0 01-.15723-.02539 4.49135 4.49135 0 01-3.08447-4.26661.49981.49981 0 01.49951-.501h.00049a.50013.50013 0 01.5.499 3.49318 3.49318 0 002.39892 3.31934.5.5 0 01-.15722.97461zM325.166 124.125a.49971.49971 0 01-.5-.5v-5a.5.5 0 011 0v5A.49972.49972 0 01325.166 124.125zm-126.72022-.09766a.49971.49971 0 01-.5-.5v-5a.5.5 0 011 0v5A.49971.49971 0 01198.4458 124.02734zM325.166 114.125a.49971.49971 0 01-.5-.5v-5a.5.5 0 011 0v5A.49972.49972 0 01325.166 114.125zm-126.72022-.09766a.49971.49971 0 01-.5-.5v-5a.5.5 0 011 0v5A.49971.49971 0 01198.4458 114.02734zM325.166 104.125a.49971.49971 0 01-.5-.5v-5a.5.5 0 011 0v5A.49972.49972 0 01325.166 104.125zm-126.72022-.09766a.49971.49971 0 01-.5-.5v-5a.5.5 0 011 0v5A.49971.49971 0 01198.4458 104.02734zM325.166 94.125a.49971.49971 0 01-.5-.5v-5a.5.5 0 011 0v5A.49972.49972 0 01325.166 94.125zM198.4458 94.02734a.49971.49971 0 01-.5-.5v-5a.5.5 0 011 0v5A.49971.49971 0 01198.4458 94.02734zM325.166 84.125a.49971.49971 0 01-.5-.5v-5a.5.5 0 011 0v5A.49972.49972 0 01325.166 84.125zM198.4458 84.02734a.49971.49971 0 01-.5-.5v-5a.5.5 0 011 0v5A.49971.49971 0 01198.4458 84.02734zM325.166 74.125a.49971.49971 0 01-.5-.5V71.72168a3.48105 3.48105 0 00-.99707-2.44629.5.5 0 11.71484-.69922 4.47038 4.47038 0 011.28223 3.14551V73.625A.49972.49972 0 01325.166 74.125zM198.4458 74.02734a.49971.49971 0 01-.5-.5V71.72168a4.46611 4.46611 0 011.35938-3.22266.50034.50034 0 01.69824.7168 3.47075 3.47075 0 00-1.05762 2.50586v1.80566A.49971.49971 0 01198.4458 74.02734zm120.90869-5.80566h-5a.5.5 0 010-1h5a.5.5 0 010 1zm-10 0h-5a.5.5 0 010-1h5a.5.5 0 010 1zm-10 0h-5a.5.5 0 010-1h5a.5.5 0 010 1zm-10 0h-5a.5.5 0 010-1h5a.5.5 0 010 1zm-10 0h-5a.5.5 0 010-1h5a.5.5 0 010 1zm-10 0h-5a.5.5 0 010-1h5a.5.5 0 010 1zm-10 0H254.355a.5.5 0 010-1h4.99951a.5.5 0 010 1zm-9.99951 0h-5a.5.5 0 010-1h5a.5.5 0 010 1zm-10 0h-5a.5.5 0 010-1h5a.5.5 0 010 1zm-10 0h-5a.5.5 0 010-1h5a.5.5 0 010 1zm-10 0h-5a.5.5 0 010-1h5a.5.5 0 010 1zm-10 0h-5a.5.5 0 010-1h5a.5.5 0 010 1zM370.52246 334.02148H300.043a4.50491 4.50491 0 01-4.5-4.5v-49.5996a4.50491 4.50491 0 014.5-4.5h70.47949a4.50491 4.50491 0 014.5 4.5v49.5996A4.50491 4.50491 0 01370.52246 334.02148zM300.043 276.42188a3.50424 3.50424 0 00-3.5 3.5v49.5996a3.50424 3.50424 0 003.5 3.5h70.47949a3.50424 3.50424 0 003.5-3.5v-49.5996a3.50424 3.50424 0 00-3.5-3.5z"/><rect width="59.364" height="43.57" x="386.423" y="68.04" fill="#fd6f41" rx="4"/><circle cx="119.246" cy="37.23" r="4.05" fill="#674cfb"/><circle cx="134.366" cy="37.23" r="4.05" fill="#2ca68f"/><circle cx="149.486" cy="37.23" r="4.05" fill="#fd6f41"/><path d="M445.78613 121.77441H360.00586a.5.5 0 010-1h85.78027a.5.5 0 110 1zM445.78613 133.02148H340.00586a.5.5 0 010-1H445.78613a.5.5 0 110 1zM445.78613 144.26758H350.00586a.5.5 0 010-1h95.78027a.5.5 0 010 1zM152.426 223.34527l4.58 22.64608h7.16S152.25235 228.418 152.426 223.34527zM440.43652 105.9248a.49457.49457 0 01-.26953-.0791L391.50293 74.64551a.4998.4998 0 11.53906-.8418l48.66406 31.2002a.49995.49995 0 01-.26953.92089z"/><path d="M391.77246 105.9248a.49995.49995 0 01-.26953-.92089L440.167 73.80371a.4998.4998 0 01.53906.8418L392.042 105.8457A.49457.49457 0 01391.77246 105.9248zM368.62793 326.60059a.4945.4945 0 01-.26953-.07911L301.668 283.76367a.4998.4998 0 11.53906-.84179l66.69043 42.75781a.5.5 0 01-.26953.9209z"/><path d="M301.9375,326.60059a.5.5,0,0,1-.26953-.9209l66.69043-42.75781a.4998.4998,0,1,1,.53906.84179L302.207,326.52148A.4945.4945,0,0,1,301.9375,326.60059Z"/><path fill="#2ca68f" d="M350.32971,232.68338l26.8581-26.8581a1,1,0,0,1,1.41421,0l16.10579,16.10579a1,1,0,0,0,1.41421,0l7.22579-7.22579a1,1,0,0,1,1.41421,0l17.75342,17.75342a1,1,0,0,1-.70393,1.70711l-70.77152.22467A1,1,0,0,1,350.32971,232.68338Z"/><circle cx="397.695" cy="196.478" r="6.6" fill="#fd6f41"/><rect width="56.137" height="6.404" x="179.738" y="327.214" fill="#fed44a"/><rect width="56.137" height="6.404" x="34.594" y="179.756" fill="#674cfb"/><rect width="56.137" height="6.404" x="391.554" y="257.409" fill="#fd6f41"/><path d="M251.83936 285.77832a4.59229 4.59229 0 114.59228-4.59277A4.59787 4.59787 0 01251.83936 285.77832zm0-8.18457a3.59229 3.59229 0 103.59228 3.5918A3.596 3.596 0 00251.83936 277.59375zM340.00586 116.20117a4.59229 4.59229 0 114.59277-4.59179A4.59744 4.59744 0 01340.00586 116.20117zm0-8.18457a3.59229 3.59229 0 103.59277 3.59278A3.59635 3.59635 0 00340.00586 108.0166z"/><polygon fill="#fed44a" points="382.548 355.351 375.228 353.351 380.548 347.031 382.548 355.351"/><polygon fill="#fed44a" points="73.608 125.435 66.288 123.435 71.608 117.115 73.608 125.435"/><polygon fill="#674cfb" points="87.8 270.131 80.48 268.131 85.8 261.811 87.8 270.131"/><polygon fill="#674cfb" points="165.204 93.397 157.884 91.397 163.204 85.077 165.204 93.397"/><polygon fill="#2ca68f" points="305.597 407.023 298.277 405.023 303.597 398.703 305.597 407.023"/></svg>