<svg width="2000" height="2000" viewBox="0 0 2000 2000" fill="none" xmlns="http://www.w3.org/2000/svg">
<path fill-rule="evenodd" clip-rule="evenodd" d="M1215 1537.17C1479.61 1555.18 1762.46 1341.3 1762.46 1081C1762.46 820.686 1343.04 931.624 1206.99 725.024C881.008 230.351 222.905 1026.37 454.263 1115.21C917.835 1293.1 580.258 1493.92 1215 1537.17Z" fill="#F0EFF4"/>
<path d="M491.981 1070.53C491.84 1071.23 491.481 1071.88 491.334 1072.57C490.165 1079.07 489.419 1083.5 490.192 1089.18C492.043 1101.33 500.535 1113.11 495.626 1128.49C490.338 1150.3 463.626 1163.56 456.44 1141.94C452.32 1127.66 459.333 1110.28 467.177 1094.51C471.548 1086.06 476.579 1077.96 482.222 1070.29C476.043 1069.89 469.964 1068.53 464.201 1066.27C462.986 1065.79 461.993 1065.35 460.778 1064.87C460.434 1065.04 459.867 1065.17 459.523 1065.34C448.931 1060.85 440.243 1056.49 429.47 1053.65C410.941 1048.32 387.47 1042.98 385.717 1023.15C385.531 1016.86 391.296 1010.54 397.326 1005.95C405.473 1000.49 415.421 998.394 425.079 1000.11C441.722 1002.18 453.209 1012.14 459.433 1024.43C463.265 1032.16 465.033 1040.93 466.233 1049.82C466.499 1054.2 467.533 1058.98 466.445 1063.57C473.513 1066.41 481.328 1067.47 489.629 1067.66C490.034 1067.55 490.46 1067.55 490.864 1067.66C493.833 1067.73 496.803 1067.59 499.752 1067.24C500.43 1053.67 494.894 1041.03 490.046 1028.05C488.463 1022.93 486.314 1017.94 485.763 1012.3C481.502 1013.59 477.094 1014.34 472.645 1014.52C464.426 1015.07 457.438 1010.32 460.57 1002.52C466.17 992.082 485.583 987.005 496.109 984.989C505.074 983.621 514.176 983.393 523.198 984.309C524.439 984.348 525.674 984.511 526.883 984.794C521.595 979.664 516.53 974.578 511.583 969.275C507.166 964.798 502.992 959.887 498.696 955.193C484.648 958.2 471.858 966.024 458.846 973.804C443.046 983.921 426.529 994.861 410.346 989.751C396.737 984.907 397.453 967.731 412.934 957.309C428.634 946.932 447.463 942.46 464.124 941.409C470.892 940.972 477.685 941.103 484.431 941.8C485.099 941.931 485.888 941.846 486.779 942.022L475.17 929.634C468.605 922.81 461.919 916.202 455.355 909.377C454.565 909.462 453.555 909.504 452.541 909.545C448.249 910.145 446.447 910.269 442.034 911.084C431.043 913.49 419.89 917.067 408.918 918.995C398.403 920.74 387.708 921.14 377.092 920.185C369.378 919.385 361.219 918.503 354.839 915.323C343.295 909.442 342.171 895.992 358.624 886.484C373 879.055 389.285 876.142 405.345 878.125C409.577 878.958 414.619 879.225 418.366 880.925L421.522 877.938L421.076 877.851C411.962 872.929 401.897 869.264 391.61 865.551C378.103 860.967 363.685 856.686 349.064 851.883C342.972 855.253 337.69 858.062 331.417 863.083C314.582 876.365 302.572 897.812 286.204 913.35C274.976 924.127 245.552 943.108 231.398 940.562C202.198 935.294 257.724 893.552 270.938 883.646C286.114 872.446 302.446 863.152 318.96 854.858C324.429 852.059 330.082 849.636 335.881 847.607C316.501 841.145 297.364 834.251 279.622 826.188C276.422 824.836 273.344 823.268 270.488 821.744L270.144 821.916C267.979 822.693 265.469 823.642 263.182 824.634C259.538 825.841 252.071 829.903 250.573 830.811C221.452 847.927 203.252 877.776 171.599 893.672C158.282 900.672 141.481 905.06 130.848 898.877C113.284 883.877 152.177 855.934 170.065 844.304C187.004 833.929 205.365 827.204 223.64 822.381C232.794 819.832 242.145 818.053 251.596 817.062C254.542 816.686 257.514 816.547 260.483 816.647C238.532 805.143 218.013 791.093 199.351 774.786C198.441 775.086 197.428 775.129 196.518 775.431C191.284 776.907 186.146 778.707 181.135 780.821C168.222 786.215 158.427 792.221 146.735 800.745C132.267 811.125 117.719 823.413 100.473 827.715C94.481 828.7 87.598 829.509 83.567 826.551C80.102 823.464 79.3291 817.779 82.9091 812.712C87.8431 804.784 96.626 798.812 104.942 793.238C112.52 788.161 120.439 783.613 128.642 779.624C138.592 774.603 149.029 770.614 159.791 767.718C168.39 765.287 177.131 763.393 185.965 762.048C182.743 758.527 179.522 755.007 176.421 751.27L176.199 751.226C162.811 743.779 147.099 738.28 138.159 726.419C134.552 721.379 131.41 715.95 131.81 709.054C131.661 699.163 145.948 690.431 156.21 689.325C166.939 687.825 174.21 693.831 176.81 701.558C179.55 711.238 177.068 722.294 177.763 732.533C177.919 737.356 178.546 742.151 179.636 746.852C179.737 747.079 179.785 747.326 179.775 747.574C179.764 747.823 179.697 748.065 179.577 748.283C183.325 752.629 187.077 756.975 191.268 761.408C194.342 764.625 197.588 767.673 200.992 770.539C199.125 764.158 199.768 756.828 203.549 749.639C205.893 744.568 211.661 740.893 217.349 739.127C230.182 735.641 233.731 744.758 228.495 754.55C224.573 762.437 215.975 772.05 216.303 777.65C216.241 779.185 216.289 780.722 216.448 782.25C216.595 782.506 216.676 782.795 216.683 783.09C216.691 783.385 216.624 783.678 216.49 783.941C225.588 791.083 235.141 797.624 245.09 803.523C241.481 795.837 238.802 787.372 241.225 777.748C243.385 769.033 252.307 759.726 262.835 760.355C272.695 760.855 279.319 766.247 284.688 772.114C295.568 783.156 297.388 801.552 301.543 814.878C303.411 821.259 306.533 827.165 309.776 832.854C310.076 833.636 311.276 834.593 311.115 835.764C336.55 845.101 362.615 852.878 389.201 861.48C400.601 865.409 411.882 869.554 422.211 874.955C417.711 869.74 413.437 864.568 409.283 859.181C403.983 859.82 399.183 859.116 396.141 856.593C392.779 853.766 394.252 848.044 398.562 844.322C396.353 840.76 393.921 837.155 391.833 833.376C380.216 839.989 369.024 844.519 360.194 840.857C352.72 836.98 358.442 826.321 366.294 821.133C369.603 818.872 373.104 816.905 376.757 815.255C372.898 812.345 368.799 809.769 364.503 807.555C345.383 797.537 322.603 791.855 306.194 778.755C297.929 772.317 288.672 765.443 286.417 754.897C285.685 750.905 285.439 746.046 288.979 741.933C302.433 728.948 320.721 737.359 331.07 742.283C339.97 746.698 347.582 753.333 353.17 761.547C358.683 769.366 362.232 778.484 366.47 787.255C368.27 790.875 370.26 794.398 372.43 797.809C371.903 796.984 371.497 795.942 370.97 795.116C367.057 786.649 363.831 777.836 360.606 769.024C360.16 768.936 360.059 768.675 359.614 768.588C359.434 768.466 359.284 768.305 359.175 768.117C359.066 767.929 359.001 767.719 358.985 767.502C359.046 767.021 359.219 766.561 359.49 766.158C359.39 765.898 359.29 765.637 359.065 765.593C358.757 765.658 358.437 765.616 358.156 765.473C357.876 765.331 357.653 765.096 357.525 764.809C351.725 750.438 333.587 724.98 347.725 706.357C349.634 704.627 352.112 703.659 354.688 703.639C361.429 703.523 364.935 708.302 367.105 712.818C372.013 724.368 372.346 737.903 368.955 751.907C368.076 755.838 366.977 759.717 365.663 763.525C365.178 764.392 365.138 765.346 364.43 766.169C366.638 767.084 368.724 768.217 370.93 769.132C373.08 762.287 374.613 755.264 375.511 748.147C376.8 738.78 378.206 723.904 389.296 716.466C390.999 715.503 393.004 715.226 394.904 715.69C396.804 716.155 398.456 717.326 399.522 718.966C404.183 725.656 401.983 735.325 398.588 744.036C395.585 751.609 391.587 758.749 386.699 765.267C384.665 768.07 382.377 770.679 379.862 773.06L379.74 773.277C383.14 775.15 386.54 777.022 389.604 779.067C401.19 786.64 411.016 796.031 420.741 805.161C421.713 806.074 422.584 806.727 423.556 807.64C424.871 805.734 425.963 803.784 427.056 801.834C430.598 795.458 433.653 788.823 436.193 781.986C440.593 770.586 446.78 751.6 461.552 742.002C466.287 738.845 471.512 740.114 473.518 743.155C476.782 748.367 473.426 756.125 470.799 762.583C466.069 773.678 458.546 784.463 450.151 794.596C445.195 800.355 440.36 805.896 434.857 811.307C433.582 812.259 432.51 813.732 431.134 814.423C437.617 820.51 444.323 826.64 451.029 832.771C457.029 820.725 460.852 809.931 465.641 797.405C470.269 786.05 475.041 774.005 485.215 764.219C493.49 756.949 502.744 758.53 505.138 765.736C509.581 777.675 503.984 793.409 496.462 806.836C491.54 815.023 485.644 822.584 478.905 829.355C474.878 833.478 470.63 837.378 466.179 841.04C465.025 841.775 463.973 842.771 462.82 843.506C465.96 846.289 469.201 849.332 472.341 852.115L481.762 860.464C481.984 860.508 482.207 860.552 482.086 860.764C482.309 860.808 482.186 861.025 482.186 861.025C484.577 862.939 487.068 865.113 489.459 867.025L489.682 867.068C497.707 849.647 507.311 832.056 521.896 816.168C528.613 808.591 536.118 800.929 545.326 795.526C555.566 789.605 571.273 784.52 572.699 796.105C573.233 807.515 564.599 818.081 554.115 827.081C561.115 823.409 568.627 821.039 575.715 820.751C579.922 820.535 584.053 821.938 587.259 824.672C590.465 827.405 592.503 831.262 592.955 835.451C593.614 851.937 576.761 868.341 564.807 883.065C558.313 890.685 552.347 899.132 552.392 906.116C552.495 908.306 552.856 910.477 553.47 912.582C553.77 913.363 554.423 913.972 553.937 914.838C553.802 915.123 553.608 915.375 553.366 915.576C553.124 915.778 552.841 915.925 552.537 916.006C553.089 916.538 553.591 917.121 554.037 917.745C558.451 919.576 562.159 922.23 562.749 926.916C562.695 927.414 562.75 927.917 562.912 928.391C563.162 928.898 563.483 929.366 563.865 929.782C565.922 932.615 567.824 935.559 569.56 938.6C568.701 926.886 567.397 915.084 572.308 902.341C580.046 881.015 601.937 859.589 608.381 839.692C611.633 829.028 610.635 820.653 611.498 810.722C610.365 810.979 609.372 810.544 609.189 809.545C608.621 807.028 608.153 804.772 607.463 802.471C605.352 793.877 603.606 787.28 600.927 778.816C599.446 773.954 597.742 769.049 596.037 764.143L595.815 764.099C592.681 763.48 589.506 763.097 586.315 762.951C580.281 762.244 565.785 762.517 558.882 763.804C544.549 765.552 526.597 773.322 516.246 765.752C508.528 759.662 515.018 746.752 525.176 740.091C537.095 731.614 551.976 727.568 564.384 728.809C573.556 729.653 580.443 734.135 586.884 738.53C587.978 739.23 589.072 739.923 590.384 740.663C589.064 734.631 587.966 728.642 586.484 723.781C582.484 709.281 576.078 695.996 570.359 682.363C569.225 682.621 568.233 682.185 567.22 682.226C564.528 682.177 561.835 682.126 559.244 682.339C551.421 682.951 543.665 684.241 536.065 686.194C526.875 688.473 517.524 691.924 508.273 692.994C495.173 694.744 482.236 692.678 474.801 685.201C467.932 677.595 476.832 666.118 487.74 660.329C498.891 654.106 511.24 651.486 522.597 651.077C539.238 650.505 548.961 656.989 555.104 668.541C556.786 671.277 560.899 674.973 564.24 675.631C565.428 676.067 566.656 676.389 567.905 676.593C566.871 674.466 566.181 672.165 565.268 669.821C560.136 655.581 559.052 641.177 550.256 628.621C545.575 622.408 535.588 614.188 530.642 606.239C528.21 602.634 525.778 599.028 523.69 595.25C508.302 592.701 488.848 596.086 471.759 593.924C465.401 592.913 459.083 590.948 455.678 586.424C448.768 577.124 455.259 566.859 469.731 561.771C485.131 555.905 497.792 562.005 507.758 568.055C510.956 570.206 513.834 572.798 516.307 575.755C515.488 572.773 514.487 569.844 513.307 566.986C510.853 561.211 507.854 557.734 502.749 553.603C497.062 549.739 491.721 545.39 486.786 540.603C483.01 538.493 479.358 536.168 475.849 533.639C471.271 530.333 466.693 527.026 464.199 522.206C460.651 515.735 458.944 505.537 468.231 498.226C473.35 493.943 481.043 492.571 485.903 494.49C497.549 500.631 498.918 518.94 495.668 532.25C494.881 534.983 494.094 537.714 493.305 540.444L493.184 540.66C495.352 542.53 497.519 544.4 499.808 546.053C503.868 548.683 507.619 551.761 510.991 555.23C511.191 547.813 508.368 540.042 508.929 531.975C509.345 519.309 518.81 505.058 532.529 496.454C549.67 486.601 563.281 494.091 559.607 509.482C558.074 516.637 553.625 523.698 549.297 530.543C544.16 537.949 538.679 545.529 531.881 552.368C528.481 555.788 524.759 558.903 520.915 562.235C519.763 563.223 518.524 564.106 517.215 564.874C519.587 569.911 520.806 575.682 522.491 581.065C525.179 589.078 529.15 596.602 534.249 603.343C538.769 610.727 548.655 618.687 554.613 626.594C555.755 628.127 556.74 629.772 557.552 631.503C557.784 631.026 558.107 630.6 558.503 630.247C561.066 619.928 561.039 609.821 562.246 599.716C564.136 581.327 571.674 562.127 594.159 550.679C604.259 545.452 617.395 542.747 624.101 548.879C631.658 556.139 630.433 569.367 623.577 580.279C613.931 596.179 596.995 609.199 580.158 619.834C573.358 624.028 567.205 626.184 562.758 630.599L562.515 631.032C562.192 632.422 561.759 633.785 561.222 635.107C561.06 635.364 560.84 635.581 560.579 635.738C560.319 635.896 560.025 635.991 559.722 636.015C564.122 646.261 565.993 657.934 569.622 667.789C575.079 682.333 581.912 696.189 587.368 710.728C587.995 709.168 588.782 706.437 589.409 704.877C591.929 697.072 593.985 689.125 595.567 681.077C600.026 660.308 606.267 634.597 632.087 621.162C665.866 605.444 693.03 624.502 671.087 655.297C659.053 671.929 640.031 683.818 621.087 693.797C611.535 699.372 601.131 703.818 594.576 710.224C593.487 711.618 592.558 713.129 591.806 714.73C591.321 715.596 591.406 716.33 590.593 716.896L589.561 717.414C589.946 718.934 590.555 720.496 590.941 722.014C594.106 732.258 595.775 743.414 598.252 753.999C598.851 756.615 599.645 759.183 600.626 761.682C600.849 761.726 600.726 761.943 600.826 762.203C601.435 763.766 601.821 765.285 602.426 766.848C613.269 754.548 619.19 739.122 629.748 725.567C640.126 713.659 656.248 701.201 671.983 700.931C695.104 701.153 679.375 731.008 666.629 743.17C656.209 753.385 642.873 760.861 629.19 765.864C627.615 771.327 625.59 776.701 623.452 782.293C624.99 780.431 626.752 778.612 628.287 776.75C632.637 772.075 643.054 759.213 649.453 761.917C655.469 765.747 645.658 777.525 639.648 781.633C633.952 785.894 627.545 789.11 620.725 791.133L620.503 791.089C618.885 795.954 617.736 800.964 617.072 806.048C616.567 810.062 616.285 814.102 616.23 818.148C616.695 817.759 617.282 817.148 617.747 816.764C619.973 814.556 621.976 812.305 623.978 810.053C628.571 804.944 632.717 799.753 638.504 795.596C649.289 787.377 658.748 792.125 651.447 802.954C645.824 811.227 635.218 815.154 626.13 817.692C624.308 818.292 619.754 819.804 617.65 821.792L617.529 822.009C617.063 822.398 616.821 822.832 616.355 823.221C615.855 832.503 614.445 842.087 608.541 851.748C597.379 871.678 579.273 891.203 575.319 910.629C572.819 924.808 576.271 938.957 575.533 953.964C575.262 971.229 571.246 989.439 570.408 1006.83C570.066 1009.65 569.724 1012.47 569.28 1015.03C575.288 1008.28 581.621 1001.83 588.28 995.682C602.038 983.482 616.019 971.318 629.008 958.723C628.941 957.519 628.687 956.333 628.256 955.208C627.048 950.843 625.218 946.676 622.822 942.833C616.822 933.233 602.866 923.27 600.284 909.774C596.184 892.374 618.16 879.62 634.402 885.945C648.602 892.829 648.511 911.091 647.102 925.967C646.363 932.068 645.135 938.1 643.431 944.005L645.191 942.187C654.355 932.446 663.091 922.141 672.157 912.139C672.197 911.185 673.147 909.929 673.531 908.802C674.811 906.548 675.887 904.184 676.745 901.738C679.878 893.938 682.545 881.232 682.414 873.511C682.685 856.246 672.107 843.34 676.487 824.48C678.645 813.119 691.996 797.228 704.513 804.022C708.462 806.242 710.313 810.454 711.95 814.145C714.607 820.445 715.543 827.6 715.35 835.017C714.943 845.789 712.677 856.409 708.65 866.409C706.184 872.759 703.301 878.939 700.019 884.909C716.307 871.28 734.094 859.389 750.241 846.453C750.133 846.184 750.094 845.894 750.125 845.606C750.157 845.319 750.259 845.044 750.422 844.805C750.742 843.421 750.951 842.015 751.046 840.598C751.327 836.565 750.755 828.755 748.788 824.76C741.529 810.343 733.259 795.967 734.117 778.097C734.648 757.276 740.596 722.369 769.639 709.807C789.515 701.695 798.539 716.94 798.626 730.907C800.081 755.245 786.637 781.461 775.6 806.467C771.133 816.652 767.758 824.886 764.222 834.292C768.4 830.403 772.358 826.284 776.077 821.954C786.353 809.787 793.593 797.743 802.248 784.054C809.73 771.577 818.103 759.275 825.585 746.798C827.04 744.198 828.395 741.338 829.851 738.738C829.706 738.594 829.595 738.42 829.525 738.228C829.455 738.036 829.429 737.831 829.448 737.628C829.467 737.425 829.531 737.228 829.636 737.053C829.74 736.877 829.882 736.727 830.051 736.613C840.631 725.227 847.143 714.483 856.629 702.4C871.092 684.082 887.923 665.508 909.229 652.627C918.68 646.791 928.944 645.685 932.429 653.587C934.518 660.012 930.819 667.942 927.261 675.179C923.5 681.895 919.395 688.779 913.974 694.931C905.134 704.976 894.329 713.673 883.098 721.804C870.131 730.959 856.384 738.956 842.017 745.704L827.93 752.311C827.578 752.486 827.19 752.574 826.797 752.569C821.964 760.757 816.341 769.03 811.286 777.175C812.744 776.905 814.183 776.545 815.597 776.099C822.56 774.362 829.323 771.905 835.777 768.768C859.032 757.713 880.723 741.058 906.187 733.568C911.065 732.368 916.147 731.681 919.893 733.381C922.004 734.459 923.645 736.275 924.505 738.484C925.365 740.693 925.384 743.141 924.558 745.363C921.225 755.29 910.663 763.553 900.747 769.778C877.697 784.001 851.02 793.661 826.907 793.002C818.829 792.854 810.891 792.013 804.148 789.483L803.925 789.439C796.584 801.223 789.025 812.962 779.696 823.874C771.665 833.357 761.996 841.795 752.018 849.452C750.618 850.62 748.881 851.961 747.263 853.085C758.821 850.551 769.563 845.932 781.692 840.622C794.159 835.14 806.607 830.134 819.48 825.694C834.843 820.781 851.723 814.484 865.998 816.813C874.685 818.524 876.472 826.813 870.303 834.738C864.703 842.538 855.371 848.154 846.953 853.471C832.724 861.859 817.279 867.987 801.17 871.636C784.956 875.419 768.821 877.293 753.475 876.436C742.946 875.807 732.094 874.873 722.799 871.599C722.576 871.555 722.699 871.339 722.699 871.339C710.174 880.899 697.872 890.503 687.331 900.939C680.877 907.606 674.646 914.316 668.638 921.07C684.53 920.147 700.287 917.608 715.664 913.492C737.425 908.637 764.426 899.281 779.072 911.545C788.107 918.375 784.513 931.858 772.572 940.812C761.099 949.376 747.152 952.643 734.418 953.744C714.68 955.871 698.318 949.763 684.038 942.144C677.881 939.008 670.084 934.827 664.758 933.297C663.253 932.76 661.677 932.45 660.081 932.377L658.744 932.113C654.739 936.613 650.389 941.292 646.161 945.751C644.522 947.351 643.106 948.998 641.589 950.383L641.346 950.816C641.104 951.249 640.76 951.422 640.072 951.768L633.395 958.39C633.421 958.637 633.389 958.887 633.302 959.12C633.215 959.353 633.076 959.563 632.895 959.734C632.391 960.143 631.804 960.437 631.175 960.598C620.411 970.986 609.101 981.026 597.568 991.022C587.701 999.542 578.427 1008.73 569.811 1018.51C569.346 1018.9 568.982 1019.55 568.395 1020.15C568.298 1020.71 568.312 1021.29 568.437 1021.84C569.844 1036.55 567.405 1051.94 564.845 1067.56C574.224 1074.22 590.703 1072.17 603.46 1075.88C612.33 1078.59 619.46 1085.28 618.96 1094.57C618.643 1104.85 610.533 1116.24 599.038 1122.64C583.273 1131.8 568.103 1124 565.338 1112.15C562.781 1103.47 562.147 1094.45 561.411 1085.16C559.07 1095.53 556.831 1106.15 555.846 1116.3C554.275 1127.05 555.846 1137.94 555.586 1149.44C555.286 1151.3 555.771 1153.08 555.023 1154.86C553.83 1156.55 550.813 1156.19 551.116 1154.33C551.84 1147.74 550.983 1138.67 550.856 1130.95C551.007 1123.34 551.548 1115.74 552.479 1108.18C553.989 1096.21 557.422 1083.9 559.843 1071.63C559.761 1070.89 559.679 1070.15 559.598 1069.41C559.565 1069.29 559.561 1069.17 559.585 1069.05C559.61 1068.93 559.663 1068.82 559.739 1068.72C557.739 1068.32 557.755 1067.85 556.418 1067.58C548.987 1065.4 541.252 1065.08 533.033 1065.63C533.333 1066.41 533.075 1067.32 533.5 1067.88C533.765 1069.62 534.17 1070.66 534.353 1071.66C536.22 1078.04 539.241 1083.68 542.141 1089.55C547.534 1100.23 553.617 1113.21 544.597 1127.55C529.532 1152.24 500.618 1148.23 506.797 1123.95C509.723 1110.34 521.111 1095.74 525.435 1083.61C526.888 1078.36 527.251 1075.06 525.992 1070.25C525.782 1068.99 525.377 1067.78 524.792 1066.65C517.565 1067.63 510.439 1068.87 502.992 1069.81C499.341 1070.29 495.663 1070.53 491.981 1070.53V1070.53ZM622.474 773.926C623.363 771.456 624.03 768.941 624.797 766.687C622.976 767.287 620.931 767.85 619.231 768.237C615.021 769.573 612.187 770.217 608.831 772.683L608.709 772.899L608.365 773.072C607.434 773.851 606.828 774.934 605.796 775.452C605.896 775.713 605.776 775.93 605.996 775.973C608.885 784.581 611.33 793.331 613.323 802.19C613.423 802.45 613.303 802.667 613.523 802.711C614.815 793.344 618.817 783.549 622.474 773.926ZM540.156 1000.4C537.706 999.923 528.373 1000.25 526.106 1000.77C523.927 1001.09 521.77 1001.55 519.648 1002.14C522.919 1007.58 524.82 1013.73 525.188 1020.07C527.548 1017.72 530.242 1015.74 533.181 1014.18C538.586 1010.92 544.539 1008.67 550.749 1007.54L550.871 1007.32C549.047 1005.28 547.224 1003.24 545.279 1001.41L545.056 1001.37C543.476 1000.82 541.827 1000.49 540.156 1000.4V1000.4ZM473.756 920.705C475.356 911.084 478.123 901.694 481.996 892.743C484.522 886.824 487.349 881.039 490.467 875.41C491.023 874.362 491.666 873.362 492.388 872.421L488.802 869.55C480.322 873.65 472.815 878.669 464.357 884.941C459.723 888.358 454.725 892.425 449.403 896.187C457.363 904.492 465.669 912.621 473.753 920.707L473.756 920.705ZM391.456 783.279C385.149 778.843 378.475 774.953 371.506 771.654C370.068 771.131 368.974 770.434 367.537 769.911C370.072 776.423 372.486 783.152 375.365 789.491C378.244 795.83 381.465 801.997 384.692 808.164C384.872 808.286 385.022 808.447 385.131 808.635C385.24 808.823 385.304 809.033 385.32 809.25C385.52 809.771 385.847 810.075 386.05 810.596C393.261 808.449 400.703 807.169 408.217 806.783C411.817 806.53 415.201 806.234 418.683 806.198C409.587 798.155 400.714 790.155 391.456 783.281V783.279ZM425.815 812.9C417.597 816.093 407.297 823.445 396.592 829.756C398.801 833.317 400.792 836.835 403.118 840.18C407.066 838.014 411.338 836.5 415.769 835.696C426.512 833.606 437.511 833.177 448.384 834.421C440.928 827.416 433.149 820.112 425.815 812.9ZM462.565 847.074C461.768 846.409 461.01 845.698 460.296 844.944C458.818 845.375 457.138 845.284 455.66 845.715C449.992 847.004 444.082 848.727 438.394 850.493C432.139 852.388 423.476 855.493 415.44 857.038C419.594 862.426 424.093 867.638 428.591 872.856C434.257 868.92 440.653 866.331 447.029 864.219C452.838 862.205 458.842 860.808 464.943 860.05C468.891 859.624 472.717 859.416 476.543 859.207C471.661 855.116 467.002 851.07 462.565 847.069V847.074ZM540.465 898.731C536.675 892.693 532.905 886.178 530.835 879.277C528.772 882.959 526.71 886.642 524.303 890.498C531.45 895.546 538.308 900.992 544.844 906.809C543.386 904.113 541.927 901.419 540.467 898.726L540.465 898.731ZM547 914.443C539.14 906.998 530.759 900.123 521.921 893.871C514.659 904.641 506.381 914.69 497.2 923.88C494.044 926.867 490.544 930.026 487.286 932.752C486.893 933.109 486.466 933.428 486.011 933.703C491.279 939.31 496.426 945.134 501.572 950.958C501.799 950.883 502.041 950.869 502.275 950.915C502.509 950.961 502.727 951.066 502.909 951.221C503.069 951.294 503.212 951.401 503.326 951.535C503.44 951.669 503.523 951.827 503.57 951.997C503.616 952.167 503.625 952.345 503.595 952.518C503.565 952.692 503.497 952.856 503.396 953.001C506.296 956.217 508.968 959.389 511.987 962.389C514.167 953.197 515.901 943.918 520.328 934.689C525.867 923.03 535.032 913.29 547 914.443ZM566.077 1006.23C567.237 986.495 571.738 967.418 571.277 948.807C571.215 947.593 571.277 946.161 571.213 944.947C568.845 945.202 568.539 941.774 567.363 940.34C566.005 937.908 564.526 935.693 563.046 933.477C561.006 939.329 556.819 945.477 552.227 950.589C545.875 957.516 536.868 960.789 528.833 964.984C527.294 965.863 525.826 966.861 524.442 967.968C524.321 968.184 523.855 968.574 523.734 968.79C523.39 968.963 522.783 970.046 522.439 970.219C521.983 970.813 521.615 971.47 521.347 972.169C529.533 980.515 538.406 988.516 546.814 996.906C546.07 990.754 546.066 984.536 546.801 978.383C547.425 974.176 548.414 969.32 551.954 965.207C554.543 962.349 559.402 961.622 561.448 963.707C563.616 965.577 563.598 968.7 563.701 971.607C563.361 977.072 561.664 982.752 559.644 988.126C557.94 992.64 556.583 997.278 555.584 1002C555.311 1003.15 555.149 1004.33 555.101 1005.51C558.424 1009.29 561.624 1013.29 564.701 1017.5C565.088 1013.73 565.693 1010 566.075 1006.23H566.077ZM556.825 1063.82C558.336 1064.15 559.819 1064.6 561.26 1065.17L561.483 1065.21C563.136 1055.2 564.504 1043.92 565.065 1035.85C565.23 1034.25 565.222 1032.64 565.042 1031.04C564.92 1031.24 564.753 1031.42 564.552 1031.54C564.352 1031.67 564.124 1031.75 563.888 1031.77C562.067 1032.37 560.77 1031.16 561.74 1029.43C562.124 1028.3 562.285 1027.13 562.669 1026C561.778 1025.83 561.13 1025.22 561.393 1024.31C561.17 1024.26 561.17 1024.26 560.826 1024.44C558.605 1024.56 556.404 1024.93 554.267 1025.55C550.057 1026.89 542.488 1030.69 536.577 1032.41C532.59 1033.79 528.077 1034.34 524.856 1033.47C524.555 1036.21 524.028 1038.92 523.282 1041.58C521.052 1049.72 517.345 1057.39 512.346 1064.2C512.103 1064.63 511.638 1065.02 511.395 1065.45C525.867 1063.01 543.722 1060.27 556.823 1063.82H556.825Z" fill="#DAD8E4"/>
<path fill-rule="evenodd" clip-rule="evenodd" d="M1440.02 801.263C1531.24 822.809 1668.27 901.115 1699.84 756.1C1721.47 656.739 1464.64 665.223 1411.3 610.17C1293.96 489.064 1113.36 598.628 1190.59 637.56C1345.33 715.532 1221.18 749.567 1440.02 801.263Z" fill="#F0EFF4"/>
<path fill-rule="evenodd" clip-rule="evenodd" d="M743.281 963.2C777.681 1014.74 1124.13 1043.01 1169.16 979.671C1238.76 881.871 1038.31 602.371 1038.31 602.371C1040.9 589.012 1041.38 556.718 1030.86 544.116C1014.91 524.961 1038.63 506.769 1023.88 502.637C1004.92 497.346 989.723 515.257 956.693 524.214C937.124 529.466 939.856 580.833 958.357 609.584C964.942 619.784 977.521 620.716 977.521 620.716C977.521 620.716 1054.84 810.977 1038.42 847.416C1018.05 892.488 921.081 840.594 772.085 819.562C700.83 809.491 724.326 934.79 743.281 963.2Z" fill="#FFC197"/>
<path fill-rule="evenodd" clip-rule="evenodd" d="M934.95 823.951C921.908 833.951 918.828 857.635 916.616 872.451C914.269 888.109 914.983 904.183 920.216 919.277C928.083 941.998 944.404 960.577 951.11 983.709C956.091 1000.92 954.9 1020.32 949.064 1037.21C946.344 1045.11 942.228 1052.45 936.911 1058.9C905.394 1096.88 840.494 1082.7 800.694 1069.35C755.905 1054.32 711.664 1025.67 688.552 983.199C652.697 917.346 685.222 836.111 746.992 799.593C771.492 785.278 799.083 777.084 827.425 775.707C861.086 773.94 895.647 780.326 924.732 797.741L934.95 823.951Z" fill="#FE9400"/>
<path fill-rule="evenodd" clip-rule="evenodd" d="M1065.99 614.661C1088.37 656.89 1117.23 749.228 1132.29 794.294C1151.51 852.156 1159.16 896.016 1129.63 947.829C1094.69 1009.3 978.05 985.275 920.979 969.484C908.417 966.007 895.937 961.939 883.708 957.371C866.44 951.056 849.671 943.453 833.542 934.626C800.264 916.026 772.478 890.467 747.603 861.806C740.448 853.587 734.042 844.606 726.471 836.789C724.225 834.452 720.814 831.007 717.153 831.432C710.997 832.139 709.582 843.495 708.753 847.913C705.591 866.213 705.841 885.334 707.089 903.794C711.997 976.756 735.707 1049.64 800.932 1089.49C841.198 1114.11 891.364 1121.76 937.287 1128.5C983.127 1135.23 1031.38 1141.3 1077.8 1137.07C1160.66 1129.52 1248.1 1093.51 1293.44 1020.03C1345.85 934.9 1321.73 821.133 1278.71 737.4C1267.98 716.526 1255.59 696.451 1240.86 678.157C1212.16 642.508 1173.72 610.057 1128.38 599.172L1065.99 614.661Z" fill="black" fill-opacity="0.1"/>
<path fill-rule="evenodd" clip-rule="evenodd" d="M1486.26 512.939C1490.34 506.513 1498.1 501.9 1507 500.6C1515.77 499.191 1524.74 501.211 1532.06 506.241L1909.75 778.111C1919.54 785.159 1922.24 796.605 1916.3 805.962L1440.98 1554.16C1436.83 1560.68 1429.14 1565.2 1420.18 1566.6C1411.41 1568.01 1402.43 1565.99 1395.12 1560.96L1017.43 1289.08C1007.63 1282.04 1004.94 1270.59 1010.88 1261.23L1486.26 512.939ZM1491.93 515.239L1016.56 1263.54C1011.93 1270.82 1014.02 1279.76 1021.72 1285.3L1399.41 1557.17C1405.14 1561.09 1412.15 1562.69 1419.02 1561.65C1426.05 1560.65 1432.06 1556.98 1435.3 1551.88L1910.62 803.666C1915.3 796.294 1913.22 787.354 1905.52 781.809L1527.83 509.939C1522.09 506.018 1515.09 504.42 1508.22 505.466C1501.12 506.557 1495.18 510.131 1491.93 515.234V515.239Z" fill="#77536F"/>
<path fill-rule="evenodd" clip-rule="evenodd" d="M1413.17 506.112C1413.86 505.008 1414.77 504.06 1415.85 503.33C1416.93 502.6 1418.15 502.103 1419.43 501.872C1420.69 501.633 1421.98 501.647 1423.23 501.913C1424.49 502.178 1425.67 502.69 1426.73 503.419L1829.26 793.17C1831.23 794.601 1832.58 796.732 1833.03 799.126C1833.48 801.52 1833 803.995 1831.68 806.044L1361.01 1546.93C1360.33 1548.02 1359.42 1548.95 1358.36 1549.67C1357.29 1550.38 1356.08 1550.86 1354.81 1551.08C1353.55 1551.34 1352.25 1551.34 1351 1551.08C1349.74 1550.81 1348.55 1550.28 1347.51 1549.53L944.977 1259.78C943.003 1258.38 941.644 1256.26 941.183 1253.89C940.722 1251.51 941.194 1249.04 942.5 1247L1413.17 506.112Z" fill="#A9A5C6"/>
<path fill-rule="evenodd" clip-rule="evenodd" d="M1107.9 1088.72C1114.6 1078.18 1127.06 1070.69 1141.66 1068.55C1156.27 1066.4 1171.26 1069.77 1182.29 1077.71L1392.61 1229.1C1419.41 1248.39 1426.63 1279.52 1410.34 1305.17C1403.64 1315.71 1391.19 1323.18 1376.58 1325.33C1361.98 1327.47 1346.99 1324.11 1336 1316.2L1125.64 1164.77C1098.89 1145.53 1091.61 1114.36 1107.9 1088.72ZM1112.44 1090.53L1112.43 1090.54C1097.18 1114.55 1104 1143.73 1129.05 1161.76L1339.41 1313.19C1349.21 1320.25 1362.63 1323.27 1375.67 1321.35C1388.66 1319.39 1399.83 1312.76 1405.81 1303.35C1421.06 1279.34 1414.24 1250.16 1389.19 1232.13L1178.83 1080.7C1169.03 1073.64 1155.61 1070.62 1142.63 1072.56C1129.59 1074.49 1118.42 1081.12 1112.44 1090.53H1112.44Z" fill="white"/>
<path fill-rule="evenodd" clip-rule="evenodd" d="M938.72 1021.52C942.949 1014.87 948.493 1009.15 955.012 1004.71C961.53 1000.28 968.886 997.223 976.627 995.732C984.369 994.242 992.333 994.348 1000.03 996.045C1007.73 997.742 1015 1000.99 1021.4 1005.6L1290.53 1199.33C1304.13 1209.11 1313.46 1223.71 1316.63 1240.15C1319.8 1256.6 1316.56 1273.63 1307.57 1287.76C1303.34 1294.41 1297.8 1300.14 1291.28 1304.57C1284.77 1309.01 1277.41 1312.07 1269.67 1313.56C1261.92 1315.05 1253.96 1314.94 1246.26 1313.24C1238.56 1311.54 1231.29 1308.29 1224.89 1303.68L955.756 1109.95C942.176 1100.17 932.848 1085.56 929.679 1069.13C926.511 1052.69 929.742 1035.66 938.712 1021.53L938.72 1021.52Z" fill="#77536F"/>
<path fill-rule="evenodd" clip-rule="evenodd" d="M1249.77 872.607C1251.48 869.919 1253.72 867.608 1256.36 865.816C1258.99 864.025 1261.96 862.791 1265.09 862.19C1268.22 861.59 1271.44 861.635 1274.55 862.323C1277.66 863.011 1280.59 864.328 1283.17 866.192L1546.29 1055.59C1551.75 1059.52 1555.5 1065.38 1556.77 1071.98C1558.05 1078.58 1556.75 1085.41 1553.14 1091.09V1091.09C1551.44 1093.77 1549.2 1096.08 1546.58 1097.87C1543.95 1099.65 1540.98 1100.89 1537.86 1101.49C1534.74 1102.1 1531.53 1102.06 1528.42 1101.38C1525.32 1100.69 1522.38 1099.39 1519.8 1097.53L1256.63 908.1C1251.17 904.178 1247.42 898.318 1246.14 891.719C1244.87 885.12 1246.17 878.284 1249.77 872.612L1249.77 872.607ZM1193.79 960.712C1195.5 958.024 1197.74 955.713 1200.37 953.921C1203 952.13 1205.98 950.896 1209.1 950.295C1212.23 949.694 1215.45 949.739 1218.56 950.427C1221.67 951.115 1224.61 952.432 1227.19 954.296L1490.31 1143.7C1495.76 1147.62 1499.51 1153.49 1500.79 1160.08C1502.06 1166.68 1500.76 1173.52 1497.16 1179.19V1179.19C1495.45 1181.88 1493.22 1184.18 1490.59 1185.97C1487.96 1187.76 1485 1189 1481.88 1189.6C1478.75 1190.2 1475.54 1190.16 1472.44 1189.48C1469.33 1188.8 1466.4 1187.5 1463.81 1185.64L1200.64 996.206C1195.19 992.284 1191.44 986.423 1190.16 979.825C1188.89 973.226 1190.18 966.389 1193.79 960.717V960.712Z" fill="white"/>
<path d="M1220.24 1232.47L1212.9 1226.41C1212.2 1227.1 1211.37 1227.64 1210.45 1227.97C1209.53 1228.31 1208.55 1228.44 1207.57 1228.35C1205.18 1227.98 1202.93 1226.98 1201.05 1225.46C1198.98 1224.14 1197.26 1222.35 1196.01 1220.24C1195.22 1218.59 1195.14 1217.23 1195.77 1216.24C1195.97 1215.92 1196.24 1215.66 1196.57 1215.47C1196.89 1215.28 1197.26 1215.17 1197.64 1215.16C1198.88 1215.19 1200.1 1215.49 1201.22 1216.04C1202.25 1216.47 1204.62 1217.61 1208.29 1219.37C1212.97 1221.71 1216.5 1222.96 1218.91 1223.1C1222.25 1223.34 1224.58 1222.38 1225.95 1220.22C1226.85 1218.68 1227.14 1216.86 1226.76 1215.12C1226.24 1212.81 1225.17 1210.65 1223.63 1208.85C1221.56 1206.39 1219.18 1204.22 1216.53 1202.39C1211.61 1198.85 1207.44 1196.93 1204.01 1196.63C1200.59 1196.33 1198.04 1197.44 1196.35 1199.83L1204.04 1205.73C1204.57 1205.19 1205.21 1204.79 1205.93 1204.54C1206.64 1204.29 1207.4 1204.21 1208.15 1204.3C1210.19 1204.74 1212.11 1205.66 1213.73 1206.98C1215.65 1208.24 1217.27 1209.89 1218.47 1211.84C1218.75 1212.2 1218.92 1212.64 1218.96 1213.1C1219 1213.55 1218.9 1214.01 1218.67 1214.41C1218.41 1214.75 1218.07 1215 1217.67 1215.14C1217.27 1215.29 1216.85 1215.32 1216.43 1215.23C1215.06 1215.06 1212.25 1213.97 1208.05 1211.83C1204.9 1210.16 1201.63 1208.77 1198.25 1207.66C1196.29 1207.03 1194.2 1206.92 1192.18 1207.32C1190.39 1207.78 1188.84 1208.93 1187.89 1210.52C1186.87 1212.25 1186.54 1214.3 1186.98 1216.26C1187.48 1218.79 1188.65 1221.14 1190.35 1223.07C1192.63 1225.78 1195.26 1228.16 1198.18 1230.15C1203.14 1233.73 1207.42 1235.67 1211.07 1235.98C1212.77 1236.18 1214.49 1235.96 1216.09 1235.35C1217.68 1234.74 1219.11 1233.75 1220.24 1232.47V1232.47ZM1190.49 1191.34L1193.54 1186.53L1186.06 1181.14L1183 1185.96L1190.49 1191.34ZM1176.27 1213.71L1188.8 1194L1181.32 1188.61L1168.79 1208.33L1176.27 1213.71ZM1160.99 1204.57L1151.97 1199.17C1151.75 1199.45 1151.46 1199.66 1151.13 1199.79C1150.8 1199.91 1150.44 1199.94 1150.1 1199.88C1148.73 1199.55 1147.45 1198.91 1146.36 1198.02C1144.82 1197 1143.47 1195.73 1142.35 1194.25C1141.89 1193.56 1141.67 1192.73 1141.72 1191.89C1141.9 1190.92 1142.3 1190.01 1142.88 1189.22L1144.7 1186.35C1145.62 1190.14 1147.92 1193.44 1151.14 1195.63C1154.96 1198.38 1158.69 1199.41 1162.3 1198.76C1163.72 1198.52 1165.06 1197.97 1166.25 1197.16C1167.43 1196.34 1168.42 1195.28 1169.15 1194.05C1170.16 1192.6 1170.81 1190.94 1171.04 1189.19C1171.28 1187.45 1171.08 1185.67 1170.49 1184.02C1169.2 1180.45 1166.8 1177.39 1163.65 1175.28C1160.63 1172.89 1156.79 1171.8 1152.96 1172.23L1154.72 1169.47L1147.72 1164.43L1136.47 1182.13C1135.25 1183.87 1134.41 1185.84 1133.98 1187.92C1133.81 1189.42 1134.01 1190.93 1134.57 1192.32C1135.33 1193.94 1136.35 1195.43 1137.59 1196.71C1139.38 1198.62 1141.38 1200.33 1143.53 1201.81C1148.33 1205.27 1152.11 1207.16 1154.84 1207.43C1157.55 1207.73 1159.49 1207.01 1160.62 1205.24C1160.76 1205.03 1160.88 1204.8 1160.99 1204.57ZM1161.65 1188.23C1160.32 1190.31 1158.78 1191.43 1156.97 1191.57C1155.09 1191.66 1153.23 1191.07 1151.74 1189.92C1150.02 1188.75 1148.73 1187.06 1148.05 1185.09C1147.75 1184.12 1147.68 1183.1 1147.84 1182.1C1148 1181.09 1148.4 1180.14 1148.99 1179.32C1150.29 1177.27 1151.87 1176.19 1153.68 1176.04C1155.68 1175.98 1157.64 1176.63 1159.22 1177.86C1160.87 1178.98 1162.11 1180.61 1162.73 1182.51C1162.99 1183.48 1163.02 1184.5 1162.84 1185.49C1162.65 1186.48 1162.24 1187.41 1161.65 1188.23ZM1102.05 1160.29L1109.54 1165.68L1115.92 1155.62C1117.27 1153.5 1118.31 1152.23 1119.04 1151.83C1119.81 1151.46 1120.67 1151.34 1121.51 1151.49C1122.58 1151.71 1123.58 1152.17 1124.45 1152.84C1125.68 1153.69 1126.71 1154.81 1127.47 1156.1C1128.14 1157.14 1128.44 1158.37 1128.33 1159.6C1127.88 1161.38 1127.09 1163.05 1126.02 1164.54L1120.35 1173.46L1127.84 1178.85L1140.36 1159.13L1133.41 1154.13L1131.56 1157.03C1130.44 1152.93 1127.88 1149.37 1124.36 1146.99C1122.85 1145.88 1121.18 1144.98 1119.43 1144.32C1118.12 1143.82 1116.72 1143.61 1115.33 1143.69C1114.29 1143.81 1113.3 1144.2 1112.47 1144.83C1111.42 1145.74 1110.53 1146.83 1109.83 1148.04L1102.05 1160.29ZM1096.59 1116.74L1088.7 1111.06L1079.35 1125.79C1078.44 1127.33 1077.38 1128.78 1076.18 1130.11C1075.59 1130.54 1074.92 1130.85 1074.21 1131.01C1073.49 1131.17 1072.75 1131.18 1072.03 1131.05C1067.83 1129.93 1064.18 1127.32 1061.76 1123.7C1061.07 1122.55 1060.86 1121.18 1061.17 1119.87C1061.85 1118.17 1062.72 1116.55 1063.77 1115.04L1073.33 1099.99L1065.44 1094.31L1056.38 1108.58C1054.31 1111.84 1053.03 1114.32 1052.62 1115.99C1052.17 1117.65 1052.23 1119.42 1052.78 1121.05C1053.51 1123.09 1054.6 1124.97 1056 1126.62C1058.05 1128.97 1060.39 1131.05 1062.96 1132.82C1066.71 1135.51 1069.69 1137.25 1072.05 1138.02C1073.96 1138.78 1076.01 1139.11 1078.06 1139C1079.56 1138.93 1081.01 1138.43 1082.24 1137.57C1084.26 1135.72 1086 1133.58 1087.39 1131.22L1096.59 1116.74ZM1052.64 1095.99L1045.64 1090.95L1043.8 1093.85C1043.46 1092.04 1042.74 1090.32 1041.67 1088.81C1040.45 1087.01 1038.91 1085.44 1037.13 1084.2C1034.25 1081.96 1030.69 1080.78 1027.04 1080.86C1023.6 1080.96 1020.86 1082.66 1018.84 1085.84C1017.83 1087.31 1017.18 1089 1016.93 1090.76C1016.69 1092.52 1016.85 1094.32 1017.42 1096.01C1018.63 1099.59 1020.98 1102.67 1024.1 1104.8C1025.51 1105.84 1027.07 1106.65 1028.74 1107.2C1030.5 1107.72 1032.34 1107.94 1034.18 1107.87L1027.86 1117.82L1035.34 1123.21L1052.64 1095.99ZM1039.19 1100.18C1037.77 1102.41 1036.09 1103.57 1034.15 1103.73C1032.14 1103.85 1030.14 1103.24 1028.55 1102.01C1026.91 1100.91 1025.71 1099.28 1025.14 1097.39C1024.61 1095.62 1025.05 1093.61 1026.44 1091.42C1027.77 1089.33 1029.3 1088.22 1031.14 1088.04C1033.08 1087.95 1034.98 1088.55 1036.52 1089.74C1038.22 1090.88 1039.49 1092.56 1040.13 1094.51C1040.41 1095.46 1040.48 1096.47 1040.32 1097.45C1040.15 1098.44 1039.77 1099.37 1039.19 1100.18V1100.18Z" fill="white"/>
<path d="M1436.04 899.523C1385.75 852.303 1376.73 780.224 1415.88 738.531C1455.03 696.837 1527.54 701.317 1577.82 748.537C1628.11 795.757 1637.13 867.836 1597.98 909.529C1558.82 951.223 1486.32 946.743 1436.04 899.523Z" fill="white"/>
<path fill-rule="evenodd" clip-rule="evenodd" d="M1517.38 875.921C1531.97 875.7 1545.12 869.298 1552.86 857.127C1566.87 835.063 1557.72 802.338 1532.37 784.091C1507.03 765.844 1474.97 768.927 1460.96 790.991C1451.89 805.262 1452.64 824.025 1461 840.391C1426.64 828.829 1395.89 834.558 1388.14 855.906C1379.07 880.973 1405.19 918.163 1446.4 938.879C1487.61 959.595 1528.56 956.101 1537.63 931.034C1543.29 915.1 1534.9 894.3 1517.38 875.921Z" fill="#D1CFE1"/>
<path fill-rule="evenodd" clip-rule="evenodd" d="M774.443 1383.14C765.625 1216.75 824.11 1071.94 818.786 976.816C815.375 916.475 841.498 826.916 742.33 812.407C657.306 799.969 552.23 822.441 531.516 845.319C489.586 891.475 504.811 1141.74 544.661 1175.88C624.527 1226.87 712.047 1332.19 774.443 1383.14Z" fill="#FE9400"/>
<path fill-rule="evenodd" clip-rule="evenodd" d="M602.49 936.749C609.396 945.966 613.306 957.373 616.551 968.288C625.12 996.432 625.451 1024.52 621.542 1053.48C617.715 1082.08 610.142 1111.71 615.303 1140.63C619.212 1162.03 630.693 1179.73 641.924 1197.9C670.124 1243.6 686.766 1258.6 724.953 1292.49C746.667 1311.69 789.012 1390.62 782.606 1421.33C778.196 1442.75 744.337 1421.95 731.606 1415.41C697.08 1397.61 666.215 1372.59 632.522 1353.05C584.436 1325.09 530.36 1300.94 494.336 1256.93C446.499 1198.43 440.759 1109.98 459.145 1039.05C467.881 1005.29 483.271 969.96 513.637 950.592L602.49 936.749Z" fill="black" fill-opacity="0.1"/>
<path fill-rule="evenodd" clip-rule="evenodd" d="M541.343 848.333C484.182 872.463 367.786 1200.88 434.694 1262.06C501.602 1323.24 942.713 1215.46 942.713 1215.46C955.351 1220.51 986.898 1227.04 1001.33 1219.07C1023.06 1207.01 1009.69 1180.09 1016.52 1166.39C1025.27 1148.76 1087.8 1188.42 1085.28 1154.28C1083.71 1134.08 982.338 1122.78 950.627 1135.58C939.288 1140.14 936.016 1152.33 936.016 1152.33C936.016 1152.33 621.835 1181.43 589.124 1158.45C548.673 1129.99 650.067 1027.37 634.289 911.38C624.579 840.081 572.727 835.057 541.343 848.333Z" fill="#FFC197"/>
<path fill-rule="evenodd" clip-rule="evenodd" d="M631.589 1061.22C624.211 1046.54 601.527 1039.07 587.389 1034.12C572.45 1028.87 556.527 1026.56 540.72 1028.86C516.927 1032.33 495.615 1044.88 471.638 1047.12C453.797 1048.79 434.969 1043.98 419.47 1035.08C412.222 1030.92 405.778 1025.5 400.447 1019.07C369.047 980.988 395.147 919.9 415.734 883.311C438.902 842.137 475.334 804.055 521.391 789.321C592.801 766.456 666.491 813.643 690.774 881.166C700.239 907.916 703.111 936.555 699.147 964.652C694.569 998.047 681.813 1030.8 659.247 1056.1L631.589 1061.22Z" fill="#FE9400"/>
<path fill-rule="evenodd" clip-rule="evenodd" d="M728.826 810.159C728.826 810.159 695.298 785.359 703.119 759.252C705.119 752.397 720.256 771.714 733.9 763.352C752.536 751.852 757.029 685.574 735.98 651.09C722.919 629.717 676.996 616.897 662.02 631.456C647.044 646.015 641.139 708.07 646.297 738.456C654.45 786.926 610.274 816.085 610.274 816.085C610.274 816.085 683.652 874.812 702.121 923.556C707.528 937.87 728.826 810.159 728.826 810.159Z" fill="#FFC197"/>
<path fill-rule="evenodd" clip-rule="evenodd" d="M711.864 762.82C709.202 761.381 707.039 758.444 705.042 756.248C700.455 751.331 696.229 746.09 692.396 740.566C690.982 738.366 689.568 736.123 687.987 733.951C687.654 733.402 686.739 731.805 685.907 731.805C685.075 731.805 685.574 734.551 685.657 734.905C686.213 738.746 687.104 742.532 688.32 746.219C692.895 761.31 702.296 772.608 712.363 784.347L711.864 762.82Z" fill="black" fill-opacity="0.1"/>
<path fill-rule="evenodd" clip-rule="evenodd" d="M725.747 679.094C731.987 678.72 737.81 675.076 742.636 671.349C761.188 657.056 759.936 632.189 743.801 616.515C734.067 607.106 714.101 600.825 704.782 614.07C701.787 609.827 695.548 608.029 690.806 606.923C686.957 605.901 682.96 605.552 678.992 605.891C651.871 609.544 658.192 643.628 637.562 654.527C630.823 650.192 623.418 664.36 622.088 668.678C617.512 683.695 619.508 709.36 636.813 715.35C638.313 719.385 642.137 722.222 645.548 724.55C654.948 731.015 670.091 735.64 680.573 728.96C681.834 728.145 682.981 727.165 683.984 726.048C691.471 717.72 683.568 708.228 681.072 699.576C679.741 695.016 678.659 689.309 682.652 685.724C685.897 682.912 689.142 684.509 691.721 687.224C695.631 691.359 697.794 697.873 704.034 699.038C713.019 700.702 721.754 692.066 724.583 686.009C725.166 684.726 725.747 679.094 725.747 679.094Z" fill="black"/>
<path fill-rule="evenodd" clip-rule="evenodd" d="M783.111 612.983C783.108 610.059 783.925 607.192 785.469 604.708C787.014 602.225 789.224 600.225 791.849 598.935L1126 434.6C1128.39 433.434 1131.03 432.894 1133.69 433.03C1136.34 433.167 1138.92 433.975 1141.17 435.38C1143.43 436.784 1145.29 438.739 1146.59 441.061C1147.88 443.382 1148.56 445.994 1148.57 448.652V503.952C1148.57 506.875 1147.75 509.737 1146.2 512.219C1144.66 514.7 1142.45 516.702 1139.84 518L805.619 682.366C803.232 683.537 800.586 684.08 797.931 683.943C795.276 683.806 792.7 682.993 790.447 681.583C788.193 680.172 786.337 678.21 785.054 675.881C783.77 673.553 783.102 670.936 783.113 668.277L783.111 612.983Z" fill="#77536F"/>
<path fill-rule="evenodd" clip-rule="evenodd" d="M1101.44 516.488L1108.55 508.443L1099.29 499.043L1115.65 486.668L1113.46 479.7L1097.11 492.073L1097.97 475.014L1089.52 478.748L1088.65 495.807L1072.83 497.638L1069.82 506.9L1085.64 505.068L1074.99 523.257L1081.59 525.25L1092.19 507.078L1101.44 516.488ZM1042.58 545.4L1049.69 537.354L1040.44 527.954L1056.79 515.582L1054.61 508.614L1038.25 520.986L1039.12 503.928L1030.66 507.662L1029.79 524.72L1013.97 526.552L1010.96 535.813L1026.78 533.982L1016.13 552.171L1022.73 554.163L1033.33 535.992L1042.58 545.4ZM979.512 573.528L986.622 565.483L977.371 556.083L993.726 543.711L991.54 536.743L975.184 549.116L976.05 532.057L967.591 535.791L966.726 552.85L950.905 554.681L947.895 563.943L963.716 562.111L953.064 580.3L959.664 582.293L970.264 564.121L979.512 573.528ZM917.93 606.705L925.04 598.659L915.789 589.259L932.144 576.886L929.957 569.919L913.602 582.291L914.468 565.233L906.009 568.967L905.144 586.025L889.323 587.857L886.313 597.118L902.134 595.287L891.482 613.475L898.082 615.468L908.682 597.297L917.93 606.705ZM852.945 638.664L860.055 630.619L850.804 621.219L867.159 608.847L864.972 601.879L848.617 614.252L849.483 597.193L841.024 600.927L840.158 617.986L824.338 619.817L821.328 629.079L837.149 627.247L826.497 645.436L833.097 647.429L843.697 629.257L852.945 638.664Z" fill="white"/>
<path fill-rule="evenodd" clip-rule="evenodd" d="M993.189 612.137C987.989 606.237 956.764 592.023 948.568 590.882C935.498 588.962 923.195 597.524 927.724 609.953C929.524 614.735 969.075 625.722 979.953 626.112C984.407 626.253 995.265 614.475 993.189 612.137Z" fill="#FFC197"/>
</svg>
